<?xml version="1.0" standalone="no"?>
<!DOCTYPE svg PUBLIC "-//W3C//DTD SVG 20010904//EN"
 "http://www.w3.org/TR/2001/REC-SVG-20010904/DTD/svg10.dtd">
<svg version="1.0" xmlns="http://www.w3.org/2000/svg"
 width="1872.000000pt" height="904.000000pt" viewBox="0 0 1872.000000 904.000000"
 preserveAspectRatio="xMidYMid meet">

<g transform="translate(0.000000,904.000000) scale(0.100000,-0.100000)"
fill="#000000" stroke="none">
<path d="M8614 8556 c-62 -29 -102 -75 -179 -207 -56 -96 -60 -108 -59 -164 1
-139 92 -213 227 -185 69 14 119 46 131 85 6 17 11 31 12 33 1 2 35 8 75 15
53 9 74 17 74 27 0 11 -10 15 -35 14 -60 -2 -141 -12 -147 -18 -4 -3 -18 -6
-33 -6 -29 0 -50 -16 -50 -38 0 -11 9 -13 36 -9 25 4 34 2 31 -6 -8 -24 -69
-56 -121 -62 -96 -12 -148 33 -162 139 -5 34 0 52 31 110 83 156 144 226 215
247 34 10 46 9 80 -6 42 -19 43 -23 19 -99 -14 -45 -11 -66 9 -66 24 0 66 99
60 140 -3 19 0 30 8 30 13 0 26 25 17 34 -12 12 -54 6 -59 -8 -5 -12 -11 -11
-37 5 -42 25 -81 24 -143 -5z"/>
<path d="M3090 8538 c0 -8 4 -18 9 -23 5 -6 2 -45 -5 -90 -11 -60 -29 -110
-74 -200 -94 -189 -84 -269 17 -136 53 70 93 96 93 61 0 -10 -7 -40 -16 -68
-17 -52 -14 -82 8 -82 8 0 20 29 31 73 22 90 22 100 -2 121 -25 23 -55 14 -99
-28 l-34 -31 51 100 c49 95 58 128 83 290 2 16 -3 21 -29 23 -23 2 -33 -1 -33
-10z"/>
<path d="M7216 8488 c-2 -7 -7 -35 -10 -61 -3 -27 -21 -86 -38 -130 -29 -73
-36 -82 -61 -85 -16 -2 -31 -10 -34 -19 -7 -17 14 -34 33 -26 9 3 9 -8 -3 -46
-16 -57 -14 -86 6 -86 8 0 19 21 27 50 25 99 27 101 91 113 32 7 71 13 88 14
19 2 31 9 33 21 3 14 -4 17 -45 17 -26 0 -63 -4 -82 -10 -37 -10 -37 -18 0 85
24 68 31 166 12 172 -7 3 -15 -1 -17 -9z"/>
<path d="M10045 8460 c-4 -6 0 -19 10 -29 19 -22 16 -38 -32 -178 -37 -107
-39 -157 -7 -184 22 -18 39 2 25 29 -17 32 -14 53 24 151 25 64 36 111 38 154
2 60 1 62 -25 65 -14 2 -29 -2 -33 -8z"/>
<path d="M17438 8389 c-45 -86 -60 -99 -88 -81 -47 29 -159 -95 -160 -177 0
-19 7 -42 15 -52 14 -15 14 -21 -6 -62 -21 -43 -21 -77 0 -77 5 0 21 25 35 55
l25 55 56 0 c69 0 113 18 148 59 31 38 42 71 33 106 -7 27 -34 59 -56 67 -9 3
0 26 29 73 40 68 48 104 24 112 -6 2 -31 -33 -55 -78z m-108 -171 c-18 -24
-43 -60 -57 -80 -26 -39 -43 -42 -43 -7 0 24 14 52 47 97 18 24 32 32 54 32
l31 0 -32 -42z m110 12 c24 -24 25 -41 5 -80 -20 -39 -66 -62 -116 -58 l-39 3
56 78 c31 42 60 77 65 77 5 0 18 -9 29 -20z"/>
<path d="M2635 8445 c-220 -26 -229 -28 -233 -49 -4 -21 -14 -21 216 5 98 11
115 11 123 -2 15 -22 1 -75 -46 -184 -56 -131 -75 -188 -77 -236 -1 -43 4 -54
25 -46 8 3 14 22 15 48 1 25 21 89 48 153 71 169 86 217 82 254 l-4 35 75 -7
c123 -12 134 -12 138 1 13 36 -174 50 -362 28z"/>
<path d="M11134 8431 c-41 -25 -84 -82 -127 -166 -36 -73 -88 -145 -146 -202
-18 -18 -30 -37 -26 -43 14 -23 45 -6 92 53 l50 62 71 3 71 3 3 -58 c2 -46 7
-59 21 -61 14 -3 17 5 17 52 0 30 5 58 11 61 6 4 8 13 5 21 -3 8 3 52 14 97
23 95 25 132 7 166 -16 32 -26 34 -63 12z m36 -66 c0 -24 -25 -140 -36 -169
-5 -12 -21 -16 -65 -16 l-59 0 36 73 c36 73 100 151 116 141 4 -3 8 -16 8 -29z"/>
<path d="M11477 8443 c-3 -5 -8 -28 -11 -53 -15 -100 -39 -199 -48 -194 -15
10 -75 -35 -88 -65 -14 -34 -6 -67 23 -98 28 -31 53 -29 62 5 3 15 14 45 24
67 21 45 46 145 56 220 3 28 11 60 17 72 8 17 8 26 -2 38 -14 16 -26 19 -33 8z
m-73 -315 c-4 -13 -11 -34 -16 -48 l-10 -25 -10 22 c-8 17 -7 28 6 48 21 31
40 33 30 3z"/>
<path d="M17985 8410 c-3 -5 -15 -10 -26 -10 -11 0 -23 -10 -28 -22 -5 -13
-28 -41 -50 -63 -40 -38 -53 -77 -30 -91 7 -4 -1 -18 -20 -38 -63 -65 -76
-149 -25 -162 59 -15 206 20 240 57 21 24 24 119 5 143 -9 11 -8 26 5 66 18
55 9 100 -20 100 -7 0 -16 7 -20 15 -6 17 -22 20 -31 5z m40 -82 c-4 -13 -9
-30 -11 -40 -4 -13 -20 -17 -70 -20 l-65 -3 43 37 c26 22 50 35 60 32 9 -3 19
0 23 6 12 19 26 10 20 -12z m-3 -143 c4 -16 5 -42 2 -57 -5 -24 -15 -31 -71
-48 -36 -11 -83 -20 -105 -20 -36 0 -39 2 -33 23 4 12 18 39 31 60 18 28 30
36 43 32 11 -3 24 1 32 11 35 42 89 42 101 -1z"/>
<path d="M4676 8371 c-4 -6 -4 -21 -1 -34 4 -14 -6 -58 -23 -109 -54 -156 -61
-248 -20 -256 13 -3 16 7 15 55 0 41 10 90 36 169 21 61 37 118 37 126 0 9 9
18 21 21 12 3 19 12 17 19 -5 16 -74 23 -82 9z"/>
<path d="M15265 8370 c-4 -6 -2 -17 4 -24 8 -9 -2 -43 -35 -127 -24 -62 -43
-123 -42 -134 4 -26 32 -26 36 0 7 40 96 250 109 258 7 4 13 15 13 22 0 18
-75 21 -85 5z"/>
<path d="M16430 8369 c0 -6 -9 -24 -20 -40 -17 -23 -25 -27 -44 -20 -23 9 -69
14 -118 12 -21 -1 -28 -6 -28 -21 0 -20 9 -24 42 -21 14 2 10 -9 -17 -55 -24
-39 -35 -70 -35 -96 0 -30 -9 -50 -40 -89 -44 -56 -52 -89 -20 -89 11 0 20 5
20 12 0 6 15 30 32 53 31 40 35 42 75 37 50 -5 140 33 173 75 27 35 26 85 -4
121 l-25 29 26 36 c14 20 23 43 20 52 -7 17 -37 21 -37 4z m-122 -159 c-29
-33 -54 -60 -55 -60 -2 0 4 15 13 33 21 40 54 78 65 72 4 -3 10 -1 14 5 3 5 8
10 11 10 3 0 -19 -27 -48 -60z m104 13 c37 -34 14 -80 -59 -117 -32 -16 -83
-22 -83 -10 0 10 110 144 117 144 4 0 15 -7 25 -17z"/>
<path d="M17006 8364 c-22 -8 -42 -12 -44 -9 -8 8 -52 -37 -52 -53 0 -15 0
-15 90 16 30 11 57 18 59 16 2 -2 -2 -16 -8 -33 -15 -34 -90 -91 -121 -91 -20
0 -120 -91 -120 -110 0 -22 33 -15 81 17 50 34 54 35 63 18 24 -42 56 -66 84
-63 36 4 44 38 8 38 -25 0 -56 32 -56 57 0 7 22 34 49 60 54 52 70 91 52 129
-12 27 -29 29 -85 8z"/>
<path d="M15525 8357 c-51 -20 -75 -37 -75 -53 0 -21 29 -29 43 -11 15 19 83
41 102 33 8 -3 15 -10 15 -16 0 -24 -116 -133 -165 -155 -58 -26 -88 -56 -83
-82 5 -27 35 -27 78 1 l38 25 6 -24 c9 -35 38 -48 84 -36 53 15 80 36 65 52
-9 9 -21 8 -53 -5 -50 -20 -60 -15 -60 30 0 30 10 45 59 95 32 32 64 72 69 89
10 26 8 32 -15 50 -29 22 -63 24 -108 7z"/>
<path d="M4596 8338 c-3 -7 -7 -30 -10 -51 -3 -21 -19 -74 -36 -119 -34 -87
-37 -150 -9 -156 13 -2 17 9 22 50 3 29 18 82 33 118 34 81 44 170 20 170 -9
0 -18 -6 -20 -12z"/>
<path d="M16094 8323 c-7 -23 -47 -105 -80 -163 -26 -47 -29 -95 -5 -95 8 0
19 16 25 35 6 19 28 65 49 102 45 78 59 138 33 138 -9 0 -19 -8 -22 -17z"/>
<path d="M17691 8305 c-5 -19 -39 -80 -75 -135 -87 -132 -96 -152 -96 -200 0
-34 3 -41 18 -38 12 2 19 16 23 45 3 28 29 78 81 160 81 125 102 168 94 190
-10 25 -35 13 -45 -22z"/>
<path d="M9280 8276 c0 -7 7 -19 15 -26 20 -16 38 -1 29 23 -7 20 -44 23 -44
3z"/>
<path d="M4976 8271 c-10 -16 5 -41 25 -41 20 0 23 8 13 34 -7 17 -29 21 -38
7z"/>
<path d="M3331 8199 c-17 -17 -31 -35 -31 -40 0 -6 -12 -21 -26 -34 l-26 -24
29 -43 c35 -52 64 -68 125 -68 58 0 98 14 98 35 0 14 -9 15 -59 9 -72 -8 -107
0 -121 26 -9 16 -3 23 50 51 67 36 77 62 38 99 -29 27 -41 25 -77 -11z m59
-27 c0 -4 -14 -15 -31 -24 -30 -18 -30 -10 -1 24 14 16 32 16 32 0z"/>
<path d="M6305 8183 c-19 -20 -35 -40 -35 -44 0 -4 -10 -9 -22 -11 -18 -2 -22
-10 -23 -43 -1 -22 -16 -83 -33 -136 -33 -99 -33 -129 -3 -129 16 0 46 73 67
163 5 20 12 27 30 27 36 0 99 35 123 69 29 40 27 86 -4 116 -33 34 -58 31
-100 -12z m73 -15 c20 -20 14 -53 -15 -80 -78 -71 -104 -28 -37 59 27 36 34
39 52 21z"/>
<path d="M7461 8135 c-29 -47 -57 -82 -63 -79 -6 4 -19 26 -29 50 -17 36 -23
42 -47 41 -29 -3 -46 -37 -18 -37 9 0 23 -15 32 -32 9 -18 23 -41 31 -50 13
-15 8 -27 -53 -119 -68 -104 -80 -134 -55 -134 18 0 283 403 279 424 -7 34
-28 17 -77 -64z"/>
<path d="M9005 8196 c-16 -14 -42 -25 -57 -26 -27 0 -39 -22 -19 -34 5 -3 6
-26 3 -51 -7 -67 20 -61 57 13 37 72 55 90 76 72 22 -19 44 3 29 28 -17 26
-55 25 -89 -2z"/>
<path d="M12345 8213 c-36 -10 -68 -37 -81 -70 -18 -42 -18 -40 13 -69 l28
-26 -28 -24 c-16 -13 -36 -24 -46 -24 -23 0 -41 19 -34 36 7 19 -27 31 -38 13
-5 -8 -9 -20 -9 -27 0 -22 51 -62 79 -62 34 0 92 39 111 75 14 26 13 28 -16
53 -18 16 -29 34 -27 44 5 19 59 44 86 40 14 -3 18 2 15 20 -3 23 -18 30 -53
21z"/>
<path d="M4058 8194 c-29 -15 -58 -61 -58 -89 0 -29 39 -73 73 -84 43 -15 111
-2 115 22 3 14 -5 16 -52 14 -45 -2 -59 2 -77 19 -26 26 -19 57 18 81 24 16
26 16 42 -4 12 -16 21 -19 39 -12 29 11 28 21 -8 47 -34 26 -54 27 -92 6z"/>
<path d="M6584 8200 c-58 -23 -105 -130 -69 -157 26 -18 55 -16 89 6 27 18 31
18 41 4 18 -25 37 -6 30 28 -4 18 -2 36 5 44 12 14 6 35 -9 35 -5 0 -29 -20
-53 -45 -50 -50 -84 -60 -73 -22 4 12 16 32 28 44 18 20 21 21 31 7 10 -14 14
-13 30 5 18 20 18 22 1 41 -20 22 -21 22 -51 10z"/>
<path d="M6793 8185 c-20 -14 -63 -109 -63 -140 0 -8 8 -15 19 -15 13 0 21 9
25 33 11 57 41 95 78 99 21 2 33 8 33 18 0 21 -64 25 -92 5z"/>
<path d="M9675 8191 c-7 -13 13 -44 24 -37 4 3 22 1 41 -3 l35 -7 -42 -28
c-81 -54 -42 -91 83 -80 65 6 74 9 74 27 0 19 -5 20 -72 14 l-71 -6 48 43 c58
51 57 76 -2 76 -21 0 -54 3 -74 6 -23 4 -39 2 -44 -5z"/>
<path d="M4306 8156 c-31 -29 -37 -40 -34 -68 3 -32 4 -33 51 -32 41 0 47 -2
47 -21 0 -31 22 -57 43 -49 19 7 23 29 7 39 -5 3 -9 35 -8 70 2 69 -3 80 -43
90 -21 5 -33 -1 -63 -29z m60 -43 c-26 -22 -56 -31 -56 -16 0 19 43 50 62 45
21 -5 20 -6 -6 -29z"/>
<path d="M9385 8180 c-12 -20 13 -37 47 -32 l33 5 -23 -26 c-36 -38 -27 -69
23 -79 61 -13 140 -6 140 12 0 11 -13 16 -50 18 -27 1 -61 5 -74 8 -23 5 -23
5 10 29 18 14 41 27 51 31 11 3 18 13 16 21 -2 12 -21 17 -85 20 -51 2 -84 0
-88 -7z"/>
<path d="M10281 8125 c-22 -36 -45 -65 -50 -65 -13 0 -71 71 -71 87 0 17 -15
24 -34 17 -26 -10 -19 -29 33 -86 l49 -54 -40 -54 c-68 -95 -94 -170 -58 -170
6 0 19 19 29 43 11 23 42 74 70 112 28 39 70 97 93 130 23 33 46 63 51 66 14
9 1 39 -17 39 -7 0 -32 -29 -55 -65z"/>
<path d="M5059 8143 c-22 -20 -47 -49 -55 -64 -34 -67 1 -83 38 -17 29 52 75
89 87 69 5 -8 4 -27 -1 -45 -15 -48 -15 -70 3 -74 12 -2 20 10 30 45 16 60 14
94 -8 111 -28 20 -51 14 -94 -25z"/>
<path d="M11588 8160 c-30 -23 -60 -92 -51 -115 11 -30 52 -38 93 -17 l37 18
11 -29 c6 -17 17 -27 24 -25 18 6 11 135 -8 166 -19 28 -72 30 -106 2z m77
-30 c15 -25 -61 -90 -87 -74 -9 6 19 65 36 76 16 11 44 10 51 -2z"/>
<path d="M11873 8149 c-18 -12 -33 -26 -33 -31 0 -7 -5 -6 -14 1 -18 15 -26 2
-51 -72 -13 -42 -15 -61 -7 -69 8 -8 20 2 44 37 79 115 104 131 95 64 -7 -53
11 -60 66 -23 70 48 67 48 56 15 -12 -33 2 -71 26 -71 19 0 26 13 15 29 -5 8
-2 31 6 54 31 86 10 98 -74 42 -51 -35 -52 -35 -52 -12 0 20 -27 57 -41 57 -2
0 -19 -10 -36 -21z"/>
<path d="M9202 8148 c-31 -39 -19 -125 14 -97 7 6 11 16 8 23 -3 7 0 24 5 39
12 30 -8 57 -27 35z"/>
<path d="M4899 8143 c-19 -5 -52 -92 -47 -125 4 -33 43 -32 44 2 2 53 5 61 25
81 11 11 18 27 15 35 -5 14 -9 15 -37 7z"/>
<path d="M5340 8070 c-40 -51 -37 -74 12 -78 21 -2 47 2 59 9 l22 11 -7 -103
c-10 -165 -4 -155 -95 -151 -93 4 -105 -5 -103 -78 1 -51 20 -98 53 -131 25
-25 80 -25 103 0 20 22 56 113 56 141 0 17 5 19 33 14 17 -3 38 -8 45 -10 14
-4 29 23 18 33 -3 3 -23 9 -43 12 -35 6 -38 9 -36 36 1 17 5 80 8 140 4 61 11
123 17 138 9 23 8 31 -5 44 -13 14 -19 14 -32 3 -12 -10 -19 -10 -27 -2 -21
21 -46 13 -78 -28z m74 -21 c-16 -10 -35 -19 -43 -19 -27 0 16 35 45 37 l27 1
-29 -19z m-18 -371 c-15 -92 -68 -135 -101 -84 -20 30 -36 93 -28 112 4 10 24
14 70 14 l66 0 -7 -42z"/>
<path d="M15753 8094 c-3 -8 -1 -20 6 -27 14 -14 47 15 37 32 -10 16 -36 13
-43 -5z"/>
<path d="M7795 8091 c-9 -16 3 -31 26 -31 16 0 19 -7 19 -40 0 -38 -2 -40 -29
-40 -36 0 -46 -13 -27 -33 17 -16 70 -11 86 8 6 7 10 41 8 77 l-3 63 -37 3
c-20 2 -39 -2 -43 -7z"/>
<path d="M16550 8080 c0 -15 7 -20 29 -20 29 0 57 21 44 33 -3 4 -21 7 -40 7
-26 0 -33 -4 -33 -20z"/>
<path d="M12673 8075 c-12 -8 -23 -30 -27 -53 -3 -22 -15 -51 -27 -66 -16 -20
-19 -30 -10 -39 18 -18 56 27 81 95 24 65 18 87 -17 63z"/>
<path d="M14007 8029 c-25 -15 -42 -59 -67 -169 -34 -155 -40 -167 -70 -162
-21 3 -39 -9 -94 -62 -42 -40 -66 -71 -64 -82 4 -22 80 -48 113 -40 53 13 74
46 109 166 19 63 42 153 52 200 14 67 24 91 46 112 15 14 28 31 28 37 0 14
-29 14 -53 0z m-127 -401 c-18 -59 -60 -89 -105 -72 -13 6 -8 16 31 55 58 59
87 66 74 17z"/>
<path d="M2136 8012 c-35 -21 -38 -36 -8 -40 19 -3 22 -9 22 -50 0 -61 -66
-262 -93 -283 -14 -12 -23 -35 -28 -75 -4 -33 -11 -69 -15 -81 -8 -28 23 -44
40 -21 7 10 22 14 43 11 26 -4 39 2 77 37 26 24 52 60 62 86 17 44 17 45 -6
69 -17 18 -34 25 -61 25 l-37 0 29 90 c18 57 29 111 29 148 0 32 5 63 11 69
14 14 3 33 -19 32 -9 0 -30 -8 -46 -17z m69 -372 c9 -15 -41 -97 -71 -117 -23
-14 -27 -15 -40 -1 -14 14 -14 20 5 56 11 22 28 47 36 56 18 18 60 21 70 6z"/>
<path d="M12033 7915 c-12 -9 -20 -21 -17 -29 9 -22 -45 -219 -70 -256 -33
-48 -38 -72 -26 -106 14 -36 26 -44 68 -44 45 0 84 24 116 73 32 51 32 61 0
94 -21 21 -32 24 -60 20 -30 -5 -34 -3 -30 11 3 9 15 58 27 107 11 50 25 96
31 102 11 13 4 43 -9 43 -5 0 -18 -7 -30 -15z m45 -298 c9 -10 5 -22 -13 -49
-26 -38 -43 -48 -80 -48 -52 0 -35 51 30 91 36 22 49 24 63 6z"/>
<path d="M4084 7909 c-3 -6 -2 -15 3 -20 6 -6 1 -39 -14 -91 -12 -44 -23 -87
-23 -94 0 -9 -12 -14 -33 -14 -38 0 -48 -6 -40 -26 3 -8 18 -14 35 -14 23 0
28 -4 24 -17 -3 -10 -8 -40 -12 -66 -6 -44 -5 -49 12 -45 17 3 20 11 40 106 3
17 11 22 35 22 24 0 30 4 27 18 -2 9 -13 18 -26 20 -12 2 -22 7 -22 10 0 30
45 161 62 179 11 12 17 26 13 32 -8 14 -72 14 -81 0z"/>
<path d="M4233 7894 c-3 -9 0 -20 8 -24 20 -13 -4 -118 -47 -205 -34 -71 -43
-118 -24 -130 16 -10 52 17 80 59 25 36 49 47 52 24 1 -7 2 -29 2 -48 1 -23 6
-36 17 -38 25 -5 35 73 14 105 -23 35 -60 50 -82 32 -15 -13 -16 -12 -9 6 46
112 60 218 30 229 -25 9 -34 7 -41 -10z"/>
<path d="M16156 7890 c-95 -29 -86 -103 32 -240 31 -37 52 -71 52 -85 0 -43
-22 -74 -68 -97 -40 -19 -48 -20 -70 -7 -57 32 -79 97 -61 184 7 33 -27 30
-41 -5 -26 -62 5 -161 63 -204 78 -58 217 21 217 123 0 42 -15 67 -76 131 -41
43 -74 103 -74 134 0 31 127 48 150 21 12 -14 11 -23 -7 -92 -7 -31 20 -40 45
-16 10 10 24 33 31 52 13 41 14 51 2 51 -5 0 -23 14 -39 30 -26 25 -38 30 -79
29 -26 0 -61 -5 -77 -9z"/>
<path d="M9797 7883 c-4 -3 -7 -29 -7 -57 0 -28 -7 -94 -15 -146 -21 -139 -21
-150 12 -150 17 0 44 15 74 40 l47 39 6 -31 c8 -43 25 -61 42 -48 9 8 10 19 4
38 -8 23 -15 60 -19 95 -2 20 -40 2 -83 -40 -26 -26 -50 -45 -52 -42 -3 2 1
45 9 94 12 80 19 166 16 203 -1 13 -23 17 -34 5z"/>
<path d="M16822 7859 c-52 -10 -65 -17 -58 -34 3 -8 -2 -19 -10 -26 -10 -8
-11 -15 -3 -25 14 -17 7 -60 -9 -56 -17 3 -27 -27 -14 -40 7 -7 6 -23 -5 -53
-18 -54 -14 -120 7 -120 10 0 16 12 18 35 1 19 7 51 13 71 11 34 14 37 59 41
66 7 191 54 234 90 68 56 41 102 -70 118 -79 11 -102 11 -162 -1z m211 -51
c28 -14 16 -30 -45 -60 -56 -28 -183 -66 -192 -58 -7 7 14 103 26 117 5 6 19
14 31 16 32 7 159 -4 180 -15z"/>
<path d="M2900 7792 c0 -27 47 -69 61 -55 9 9 5 20 -12 42 -27 34 -49 40 -49
13z"/>
<path d="M14244 7785 c-10 -24 2 -42 32 -49 38 -10 48 6 24 37 -24 30 -48 35
-56 12z"/>
<path d="M9031 7740 c-74 -54 -91 -130 -36 -166 28 -18 76 -22 148 -10 37 6
47 11 47 27 0 22 2 22 -73 9 -34 -5 -67 -5 -80 0 -20 8 -21 9 -2 9 22 1 86 37
97 55 14 21 8 62 -12 84 -27 29 -39 28 -89 -8z m69 -40 c0 -20 -45 -50 -75
-50 -24 0 -18 16 21 49 37 33 54 33 54 1z"/>
<path d="M13142 7743 c-29 -28 -30 -31 -19 -76 8 -35 7 -50 -3 -62 -16 -19
-40 -19 -40 0 0 21 -30 31 -40 15 -8 -14 7 -60 24 -72 13 -9 78 18 94 40 10
12 12 34 7 73 -5 47 -3 58 10 63 26 10 32 7 38 -15 5 -19 7 -20 36 -4 30 15
40 38 22 49 -5 4 -30 9 -55 12 -41 6 -48 4 -74 -23z"/>
<path d="M16587 7764 c-4 -4 -7 -19 -7 -33 0 -14 -12 -51 -26 -81 -31 -68 -36
-123 -11 -128 12 -2 17 3 17 18 0 12 13 52 29 90 35 83 43 133 21 138 -9 1
-19 0 -23 -4z"/>
<path d="M6584 7708 c-29 -34 -36 -38 -31 -20 3 13 3 30 0 38 -6 16 -49 19
-57 5 -3 -5 -23 -7 -45 -4 -47 6 -88 -12 -71 -32 6 -8 18 -11 26 -8 12 5 13 1
2 -23 -7 -16 -25 -48 -41 -72 -29 -44 -30 -72 -3 -72 9 0 37 33 65 73 27 40
57 79 67 87 19 16 19 20 -3 -77 -9 -37 23 -28 72 21 l44 45 -2 -82 c-2 -67 1
-82 13 -82 20 0 45 225 26 237 -18 12 -23 10 -62 -34z"/>
<path d="M13339 7703 c-40 -38 -51 -56 -56 -89 -4 -35 -2 -44 18 -58 40 -27
151 -16 157 17 3 14 -6 16 -64 14 -79 -2 -91 11 -54 63 24 33 60 58 60 40 0
-6 -11 -16 -25 -22 -27 -12 -35 -48 -10 -48 8 0 29 13 46 28 26 23 31 34 25
55 -3 15 -15 31 -26 37 -18 9 -28 4 -71 -37z"/>
<path d="M13558 7713 c-41 -43 -79 -125 -66 -141 12 -14 19 -9 90 57 l37 34
-10 -36 c-11 -41 1 -77 26 -77 20 0 29 19 16 34 -7 8 -7 23 -1 47 17 58 13 79
-14 79 -13 0 -26 7 -30 15 -8 21 -19 19 -48 -12z"/>
<path d="M4438 7697 c-15 -12 -35 -39 -43 -60 -15 -36 -15 -41 0 -63 32 -50
96 -57 171 -19 52 27 110 95 100 120 -9 24 -21 18 -52 -26 -46 -67 -141 -101
-178 -63 -22 21 -20 24 12 18 29 -6 86 25 106 59 9 15 6 21 -14 37 -33 26 -69
25 -102 -3z m72 -25 c0 -11 -51 -35 -58 -28 -3 3 1 12 8 21 13 16 50 21 50 7z"/>
<path d="M7382 7710 c-12 -5 -27 -21 -34 -35 -10 -21 -9 -31 5 -55 22 -37 21
-67 -2 -80 -17 -9 -20 -6 -23 22 -4 45 -32 45 -36 0 -4 -35 19 -72 44 -72 7 0
26 12 43 26 35 29 41 70 16 114 -18 34 -3 50 46 50 32 0 39 3 39 20 0 17 -6
20 -37 19 -21 0 -48 -4 -61 -9z"/>
<path d="M7901 7703 c-30 -15 -71 -64 -71 -86 0 -4 11 -19 25 -32 17 -18 35
-25 63 -25 25 0 42 -5 45 -14 3 -8 9 -58 13 -112 7 -93 6 -97 -12 -89 -50 21
-83 18 -113 -12 -54 -55 -47 -149 13 -189 25 -16 29 -16 67 1 59 27 82 72 87
169 2 45 -1 120 -6 167 -9 70 -8 95 4 134 19 66 18 85 -5 85 -11 0 -23 5 -26
10 -9 15 -46 12 -84 -7z m34 -43 c4 -6 16 -8 27 -4 18 5 20 3 15 -17 -4 -13
-7 -27 -7 -31 0 -5 -18 -8 -40 -8 -48 0 -62 21 -35 50 20 22 31 25 40 10z m15
-355 c34 -18 35 -23 16 -68 -15 -37 -58 -70 -80 -61 -19 7 -39 68 -31 94 8 26
33 50 51 50 8 0 28 -7 44 -15z"/>
<path d="M3305 7700 c-12 -4 -27 -15 -35 -25 -12 -15 -11 -22 9 -61 26 -48 23
-74 -9 -74 -17 0 -20 4 -15 20 7 23 -20 39 -37 22 -15 -15 -13 -63 3 -73 22
-14 73 -10 97 7 27 18 30 69 6 102 -18 26 -11 63 8 44 16 -16 30 -15 53 2 41
30 -24 59 -80 36z"/>
<path d="M7107 7699 c-11 -6 -25 -25 -32 -42 -11 -27 -11 -36 1 -59 8 -16 20
-28 27 -28 6 0 3 -6 -7 -12 -16 -9 -22 -7 -34 10 -17 26 -37 28 -46 6 -17 -45
41 -73 103 -48 52 20 58 39 21 66 -46 34 -36 72 20 80 14 1 25 10 25 18 0 19
-52 25 -78 9z"/>
<path d="M8174 7666 c-52 -52 -58 -92 -20 -131 51 -50 150 -39 211 25 16 17
35 30 43 30 18 0 11 34 -8 38 -8 1 -37 -16 -63 -37 -54 -45 -103 -59 -138 -40
-23 12 -23 12 16 26 94 31 118 133 32 133 -22 0 -42 -12 -73 -44z m84 -8 c-7
-19 -55 -51 -69 -46 -10 3 -5 13 15 31 30 28 61 36 54 15z"/>
<path d="M9240 7691 c0 -10 9 -30 20 -44 11 -14 20 -27 20 -30 0 -3 -18 -12
-40 -21 -22 -9 -40 -21 -40 -26 0 -22 35 -23 72 -2 39 21 39 21 71 2 40 -25
67 -26 67 -2 0 11 -13 23 -32 30 l-33 13 37 22 c40 24 54 45 39 60 -5 5 -24
-1 -47 -17 -49 -33 -58 -33 -86 4 -25 34 -48 39 -48 11z"/>
<path d="M14380 7688 c-45 -23 -89 -83 -90 -121 0 -31 34 -15 52 25 18 38 45
60 85 73 21 6 22 4 16 -27 -10 -51 -9 -71 4 -75 14 -5 26 21 36 75 5 25 2 37
-13 52 -25 25 -36 25 -90 -2z"/>
<path d="M2325 7662 c-47 -71 -46 -141 3 -161 41 -17 127 -11 127 9 0 11 -15
16 -55 20 l-55 5 31 17 c34 19 60 52 69 91 5 19 1 29 -16 41 -41 28 -76 21
-104 -22z m80 -12 c7 -11 -47 -70 -64 -70 -16 0 -14 11 9 48 20 32 43 41 55
22z"/>
<path d="M3030 7692 c-43 -13 -117 -110 -106 -138 9 -24 22 -16 54 35 16 27
40 54 51 60 20 11 21 9 21 -37 0 -32 5 -54 15 -62 21 -17 27 3 23 75 -2 47 -7
59 -23 65 -11 4 -27 5 -35 2z"/>
<path d="M6865 7690 c-22 -9 -85 -73 -85 -87 0 -22 57 -73 85 -75 43 -4 46 26
3 39 l-33 10 37 15 c53 24 72 63 42 92 -17 18 -21 18 -49 6z m10 -50 c-3 -5
-11 -10 -16 -10 -6 0 -7 5 -4 10 3 6 11 10 16 10 6 0 7 -4 4 -10z"/>
<path d="M7608 7680 c-45 -24 -80 -67 -76 -94 3 -18 10 -21 62 -22 51 -1 61
-4 68 -23 9 -26 35 -38 51 -22 8 8 8 14 -1 23 -15 15 -15 53 0 78 10 16 9 24
-8 47 -26 35 -49 38 -96 13z m48 -57 c-26 -22 -76 -32 -76 -15 0 14 73 50 88
44 12 -4 9 -10 -12 -29z"/>
<path d="M14650 7676 c0 -12 -7 -14 -30 -9 -26 5 -36 -1 -75 -39 -52 -52 -58
-84 -19 -99 15 -5 35 -7 45 -4 11 3 28 8 39 11 16 4 20 1 20 -19 0 -41 -30
-127 -44 -127 -21 0 -75 -67 -98 -119 -16 -38 -18 -52 -9 -82 31 -105 102 -51
141 107 l10 41 69 5 c78 6 97 13 81 33 -7 9 -29 11 -75 7 -36 -2 -65 -3 -65
-1 0 2 7 26 15 53 8 27 15 70 15 96 0 25 5 51 11 57 5 5 9 30 7 54 -2 32 -8
45 -20 47 -11 2 -18 -3 -18 -12z m-20 -71 c-6 -18 -77 -52 -87 -42 -8 9 58 63
76 63 15 0 17 -5 11 -21z m-46 -292 c-11 -46 -45 -132 -54 -138 -16 -10 -19
44 -4 81 30 72 71 112 58 57z"/>
<path d="M15325 7679 c-35 -10 -91 -61 -100 -90 -14 -44 41 -65 111 -44 41 12
44 12 59 -11 16 -25 39 -31 50 -13 4 5 -1 19 -10 29 -16 17 -16 25 -5 65 8 27
9 50 4 54 -15 14 -77 20 -109 10z m49 -46 c8 -20 -9 -37 -50 -51 -41 -13 -64
-1 -43 24 12 15 63 43 80 44 4 0 10 -8 13 -17z"/>
<path d="M2575 7662 c-54 -33 -80 -86 -64 -130 13 -33 86 -31 128 4 19 15 31
21 31 13 0 -45 -26 -179 -35 -179 -5 0 -27 -5 -47 -10 -81 -23 -127 -93 -107
-164 29 -106 130 -73 174 58 17 49 21 54 34 42 18 -15 41 -10 41 9 0 7 -11 22
-24 32 l-24 18 19 120 c23 150 24 194 3 202 -9 3 -20 0 -25 -8 -6 -10 -9 -10
-9 -1 0 18 -61 15 -95 -6z m95 -26 c0 -8 -15 -31 -34 -50 -24 -26 -42 -36 -64
-36 -25 0 -29 3 -25 19 7 29 47 62 85 71 18 4 34 8 36 9 1 1 2 -5 2 -13z m-48
-357 c-16 -50 -59 -109 -80 -109 -6 0 -15 14 -21 30 -16 47 3 88 53 111 63 28
66 26 48 -32z"/>
<path d="M2840 7627 c-27 -54 -22 -97 11 -97 18 0 20 4 15 25 -4 17 0 37 11
55 16 27 16 31 1 46 -14 15 -18 12 -38 -29z"/>
<path d="M9557 7659 c-22 -13 -47 -68 -47 -103 0 -49 69 -78 138 -60 38 10 24
40 -17 36 -53 -6 -81 5 -81 31 0 37 28 68 55 61 30 -7 44 15 20 33 -22 16 -43
16 -68 2z"/>
<path d="M12335 7618 c-16 -28 -34 -51 -40 -50 -5 0 -16 21 -24 46 -15 47 -30
57 -49 33 -8 -10 -5 -26 12 -61 13 -26 28 -51 34 -55 7 -4 -10 -34 -46 -81
-82 -108 -94 -128 -94 -166 0 -41 8 -55 28 -47 10 3 14 13 10 25 -2 11 -1 30
4 42 9 23 119 176 175 243 19 23 35 47 35 54 0 6 7 17 17 24 20 15 11 45 -14
45 -11 0 -30 -21 -48 -52z"/>
<path d="M10405 7631 c-23 -12 -48 -34 -58 -50 -19 -33 -22 -76 -7 -86 16 -10
42 16 37 36 -11 40 65 89 113 74 18 -6 20 -12 14 -38 -12 -51 -10 -71 6 -75
11 -2 19 11 28 43 22 84 14 100 -53 110 -29 4 -51 0 -80 -14z"/>
<path d="M10769 7601 c-30 -68 -94 -94 -122 -49 -22 34 41 66 71 36 10 -9 15
-9 27 2 22 23 3 42 -48 47 -39 5 -49 2 -71 -20 -15 -15 -26 -37 -26 -52 0 -33
42 -75 75 -75 38 0 90 24 110 51 l17 24 -5 -25 c-3 -14 -9 -55 -12 -93 -4 -37
-11 -69 -15 -72 -4 -3 -27 2 -50 10 -23 8 -60 15 -81 15 -50 0 -64 -24 -55
-98 7 -56 55 -156 79 -165 39 -14 123 77 134 145 4 29 10 38 20 34 8 -4 33 -9
55 -12 35 -6 40 -5 36 12 -2 12 -18 22 -48 29 -51 12 -48 1 -30 142 20 151
-15 215 -61 114z m-47 -258 l46 -16 -13 -45 c-12 -39 -58 -102 -74 -102 -15 0
-53 86 -58 130 -6 50 -6 50 23 50 16 0 50 -7 76 -17z"/>
<path d="M14124 7615 c-7 -19 -14 -41 -14 -48 0 -20 27 -40 45 -33 17 6 21 36
5 36 -16 0 -11 18 11 39 24 22 18 41 -12 41 -13 0 -25 -12 -35 -35z"/>
<path d="M10971 7610 c-58 -58 -36 -142 43 -160 46 -10 126 8 158 36 20 18 48
72 48 94 0 25 -31 7 -49 -29 -23 -43 -61 -64 -121 -64 -38 0 -70 16 -70 34 0
5 11 9 24 9 43 0 86 21 92 45 12 47 2 60 -47 63 -41 3 -50 -1 -78 -28z m89
-19 c0 -9 -33 -21 -59 -21 -11 0 -11 3 -1 15 13 16 60 21 60 6z"/>
<path d="M10124 7615 c-26 -17 -48 -69 -40 -90 7 -20 77 -20 117 0 32 17 35
14 41 -35 2 -18 10 -26 27 -28 21 -3 23 -1 17 25 -3 15 -9 48 -12 73 -6 43 -9
47 -45 58 -51 16 -80 15 -105 -3z m74 -37 c-5 -15 -55 -35 -64 -25 -4 4 -1 13
6 22 15 18 64 21 58 3z"/>
<path d="M16562 7505 c-24 -30 -46 -93 -77 -215 -18 -74 -24 -85 -45 -88 -35
-6 -99 -52 -116 -85 -34 -66 17 -108 85 -71 48 26 75 78 107 209 32 129 59
204 81 220 17 12 15 46 -3 52 -7 2 -21 -8 -32 -22z m-123 -367 c-19 -37 -51
-68 -71 -68 -28 0 -22 19 18 56 42 41 71 47 53 12z"/>
<path d="M12376 7488 c-2 -7 -11 -44 -20 -82 -9 -38 -36 -113 -59 -165 l-43
-96 -64 -8 c-61 -8 -84 -20 -76 -42 2 -5 12 -9 22 -7 10 1 36 5 57 9 l37 6
-25 -57 c-14 -31 -25 -65 -25 -76 0 -25 29 -27 36 -2 3 9 17 43 31 74 27 58
40 67 98 68 49 0 76 11 73 29 -3 13 -14 15 -61 13 l-58 -4 27 59 c73 160 104
293 69 293 -9 0 -17 -6 -19 -12z"/>
<path d="M13596 7462 c-3 -5 -14 -32 -25 -61 -57 -144 -94 -211 -115 -211 -41
0 -67 -12 -64 -29 3 -12 12 -15 36 -13 18 2 32 2 32 0 0 -2 -9 -28 -19 -58
-14 -39 -16 -59 -9 -67 15 -19 23 -10 48 59 25 72 41 88 85 88 37 0 46 6 38
26 -3 8 -19 14 -38 14 l-32 0 48 113 c27 61 49 117 49 123 0 14 -27 26 -34 16z"/>
<path d="M13768 7433 c-9 -10 -21 -34 -27 -54 -6 -20 -24 -56 -39 -80 -104
-164 -153 -252 -148 -265 12 -33 57 -12 139 65 43 40 44 39 18 -22 -16 -37
-17 -48 -7 -63 15 -20 36 -11 36 17 0 11 7 34 16 50 8 17 14 42 12 57 -5 43
-44 41 -97 -5 -51 -43 -48 -35 30 88 27 41 59 100 71 130 12 30 26 57 31 60
11 8 2 39 -11 39 -5 0 -16 -8 -24 -17z"/>
<path d="M6575 7389 c-44 -10 -102 -20 -130 -21 -49 -3 -50 -4 -48 -33 1 -16
-4 -54 -12 -85 -38 -149 -38 -250 0 -250 7 0 17 -9 20 -20 6 -19 35 -29 35
-12 0 4 46 6 102 4 57 -1 155 4 218 10 99 11 115 16 118 32 4 18 -1 18 -69 13
-198 -17 -334 -19 -374 -4 l-40 14 4 49 c1 27 6 53 8 58 3 5 46 6 95 2 81 -5
89 -4 86 11 -4 21 -40 30 -119 32 l-56 1 15 65 16 64 55 12 c31 6 81 18 112
25 31 8 75 14 98 14 34 0 41 3 41 20 0 17 -6 20 -47 19 -27 -1 -84 -10 -128
-20z"/>
<path d="M4737 7393 c-8 -13 -16 -62 -32 -180 -14 -112 -45 -200 -66 -188 -26
17 -109 246 -109 304 0 25 -10 32 -31 21 -24 -13 -38 -61 -48 -166 -6 -65 -15
-103 -35 -142 -26 -52 -27 -72 -2 -72 20 0 68 110 72 170 11 131 14 133 41 40
26 -90 64 -169 95 -197 26 -23 46 -10 81 54 40 74 79 350 50 360 -6 2 -13 0
-16 -4z"/>
<path d="M3625 7360 c-14 -22 22 -31 142 -37 l130 -6 -29 -96 c-15 -53 -29
-120 -31 -150 l-2 -53 -105 6 c-58 3 -120 8 -137 12 -27 5 -33 3 -33 -10 0
-35 45 -41 310 -39 140 1 265 5 278 8 12 3 22 12 22 21 0 13 -19 15 -145 12
-136 -3 -144 -2 -149 17 -6 23 6 84 41 193 l26 82 51 1 c28 1 116 4 196 8 125
5 145 8 148 23 3 15 -24 17 -353 15 -196 -1 -358 -4 -360 -7z"/>
<path d="M4965 7349 c-14 -22 30 -270 61 -348 32 -80 85 -69 99 20 9 61 53
217 71 251 11 22 20 27 35 23 27 -9 37 22 13 40 -34 25 -52 18 -78 -33 -24
-47 -67 -196 -81 -277 l-7 -40 -13 26 c-16 29 -50 193 -61 287 -6 59 -22 80
-39 51z"/>
<path d="M15840 7335 c-5 -14 -10 -31 -10 -36 0 -5 -24 -58 -54 -117 -30 -59
-55 -117 -56 -127 -5 -42 0 -55 20 -55 15 0 20 7 20 29 0 16 25 80 55 143 55
113 71 177 48 185 -7 3 -17 -7 -23 -22z"/>
<path d="M5722 7321 c4 -18 58 -29 145 -30 l51 -1 -15 -67 c-9 -38 -24 -90
-34 -116 -19 -47 -25 -108 -13 -120 13 -13 34 7 34 33 0 15 9 53 21 86 11 32
26 86 33 119 l13 60 121 3 c101 2 122 5 122 18 0 8 -6 17 -12 19 -7 2 -116 6
-241 8 -206 4 -228 3 -225 -12z"/>
<path d="M5466 7308 c-3 -7 -7 -35 -10 -63 -4 -27 -16 -94 -28 -148 -19 -89
-20 -99 -6 -114 19 -19 41 -8 33 16 -3 10 4 56 15 103 24 103 31 209 13 215
-7 3 -15 -1 -17 -9z"/>
<path d="M15917 7240 c-3 -22 -22 -73 -42 -115 -34 -69 -40 -105 -16 -105 16
0 93 170 99 217 4 38 2 43 -15 43 -16 0 -22 -8 -26 -40z"/>
<path d="M8916 7189 c-46 -41 -46 -41 -46 -15 0 33 -23 43 -54 23 -16 -11 -36
-14 -60 -10 -33 5 -36 4 -36 -19 0 -13 -16 -48 -35 -78 -39 -62 -45 -100 -17
-100 11 0 45 35 86 86 37 47 70 83 73 80 4 -3 -3 -20 -15 -36 -24 -32 -29 -60
-9 -60 6 0 45 25 86 56 l74 55 -8 -48 c-12 -85 -11 -118 4 -118 26 0 53 163
35 209 -10 25 -28 19 -78 -25z"/>
<path d="M15330 7214 c-19 -8 -54 -34 -77 -57 -83 -81 -43 -157 83 -157 38 0
45 3 42 18 -2 13 -17 19 -57 24 -29 3 -58 11 -64 17 -19 19 6 62 57 98 55 38
76 42 76 13 0 -29 28 -25 42 6 11 22 10 28 -7 40 -24 18 -51 17 -95 -2z"/>
<path d="M9550 7209 c-62 -25 -77 -70 -39 -117 l20 -27 -21 -17 c-26 -21 -41
-23 -37 -5 1 6 -7 12 -18 12 -16 0 -20 -7 -20 -30 0 -26 4 -30 30 -33 36 -3
90 28 98 57 2 11 -4 37 -15 58 l-20 37 22 18 c27 22 36 23 44 3 7 -19 25 -19
33 0 6 17 -23 55 -41 54 -6 0 -22 -5 -36 -10z"/>
<path d="M13900 7176 c-42 -29 -80 -78 -80 -104 0 -52 75 -58 208 -16 86 28
102 38 83 57 -8 8 -28 5 -73 -11 -81 -28 -153 -41 -170 -31 -9 6 -6 9 10 9 31
0 118 45 126 65 8 22 8 21 -10 39 -22 23 -54 20 -94 -8z m59 -20 c-2 -2 -15
-9 -29 -15 -24 -11 -24 -11 -6 3 16 13 49 24 35 12z"/>
<path d="M15539 7159 c-33 -33 -40 -46 -37 -72 4 -38 35 -48 73 -23 32 21 32
21 31 -21 -1 -31 3 -39 20 -41 19 -3 21 3 22 62 1 36 -3 68 -8 71 -6 4 -31 -5
-55 -20 -25 -14 -45 -22 -45 -16 0 17 61 61 84 61 29 0 39 10 25 27 -22 26
-67 15 -110 -28z"/>
<path d="M9155 7163 c-14 -15 -25 -33 -25 -40 0 -7 -7 -10 -15 -7 -19 8 -32
-23 -16 -39 6 -6 11 -23 11 -39 0 -34 45 -61 93 -56 46 4 51 38 5 38 -18 0
-39 4 -47 9 -18 12 -7 41 16 41 29 0 83 43 83 67 0 24 -34 53 -62 53 -9 0 -29
-12 -43 -27z m60 -22 c3 -6 -3 -15 -14 -20 -28 -16 -33 -14 -21 9 12 22 25 26
35 11z"/>
<path d="M9787 7184 c-4 -4 -7 -35 -7 -70 0 -34 -3 -69 -6 -78 -9 -22 -34 -20
-61 5 -21 21 -23 21 -29 4 -11 -27 8 -49 51 -60 34 -8 39 -7 61 18 19 22 24
40 24 84 0 51 2 55 20 49 11 -3 29 -9 40 -12 28 -9 26 21 -2 40 -28 17 -82 29
-91 20z"/>
<path d="M16078 7154 c-57 -30 -66 -98 -18 -124 31 -16 125 -9 125 10 0 9 -13
17 -35 21 -19 4 -26 7 -15 8 30 2 65 29 65 51 0 43 -70 63 -122 34z m72 -33
c0 -5 -19 -13 -42 -19 l-43 -11 24 20 c24 19 61 26 61 10z"/>
<path d="M10821 7135 c-41 -29 -71 -72 -71 -102 0 -50 78 -66 206 -42 75 14
99 26 85 43 -9 10 -23 10 -73 0 -35 -8 -89 -14 -120 -14 -59 0 -69 8 -48 40 8
13 10 12 10 -2 0 -36 140 -9 164 31 11 17 -5 39 -39 55 -45 22 -74 19 -114 -9z
m88 -22 l23 -6 -23 -13 c-13 -7 -40 -13 -59 -13 l-35 -1 25 20 c27 21 34 23
69 13z"/>
<path d="M10350 7119 c-105 -72 -108 -139 -6 -139 19 0 46 4 60 10 l26 10 0
-68 c0 -104 -4 -110 -52 -102 -102 19 -144 -30 -136 -159 5 -86 36 -161 66
-161 39 0 98 90 132 200 13 41 23 56 39 58 26 4 28 32 2 39 -16 4 -18 13 -13
101 3 66 11 108 23 131 21 39 15 61 -15 61 -15 0 -27 9 -34 25 -15 33 -37 31
-92 -6z m87 -49 c24 0 13 -16 -22 -33 -37 -18 -105 -23 -105 -9 0 10 35 42 70
64 23 15 26 15 34 -3 5 -10 15 -19 23 -19z m-45 -284 l27 -6 -16 -53 c-17 -61
-72 -167 -85 -167 -30 0 -50 147 -29 204 9 22 38 36 66 30 6 -1 22 -5 37 -8z"/>
<path d="M10066 7110 c-40 -26 -61 -66 -45 -86 13 -16 66 -19 89 -4 11 7 17 2
25 -23 5 -17 17 -33 26 -35 15 -3 17 6 14 57 -4 68 -10 83 -42 100 -29 15 -33
14 -67 -9z m58 -29 c3 -4 -6 -13 -20 -20 -38 -17 -52 -13 -25 9 25 22 37 25
45 11z"/>
<path d="M12467 7072 c-88 -58 -70 -117 35 -114 85 2 115 37 59 70 -17 9 -35
27 -40 39 -13 28 -18 28 -54 5z m37 -72 c-7 -7 -19 -7 -35 -1 -23 9 -22 10 11
10 23 1 31 -2 24 -9z"/>
<path d="M3235 6938 c-5 -14 -65 -282 -65 -291 0 -3 -17 -7 -37 -9 -27 -2 -39
-8 -41 -20 -3 -15 4 -18 32 -18 35 0 35 -1 28 -32 -4 -18 -7 -53 -7 -78 0 -35
4 -45 18 -48 14 -3 17 4 17 35 1 52 16 114 31 123 6 5 30 11 52 14 50 8 58 13
50 32 -4 11 -16 13 -53 8 l-48 -6 29 133 c16 74 31 141 32 149 3 18 -31 26
-38 8z"/>
<path d="M15853 6933 c-3 -10 -26 -66 -50 -125 -44 -107 -45 -108 -78 -108
-46 0 -85 -16 -85 -35 0 -14 8 -15 46 -9 45 6 46 6 38 -17 -5 -13 -9 -51 -9
-84 0 -47 3 -60 15 -60 11 0 17 16 21 60 8 90 20 105 80 105 l49 0 -19 -38
c-10 -20 -20 -55 -22 -77 -6 -59 22 -58 95 5 32 28 60 49 62 47 2 -2 -2 -18
-8 -35 -9 -24 -10 -37 -2 -50 18 -27 39 -21 40 13 1 17 7 48 12 69 6 22 9 44
6 48 -12 20 -56 4 -108 -38 -31 -25 -56 -42 -56 -38 0 4 32 65 71 136 75 135
113 223 104 239 -13 20 -34 7 -45 -28 -7 -21 -33 -77 -58 -125 l-46 -88 -52 0
-52 0 45 110 c42 102 49 140 23 140 -6 0 -13 -8 -17 -17z"/>
<path d="M8005 6913 c-132 -22 -396 -36 -450 -23 -15 4 -21 -1 -23 -16 -3 -19
3 -23 45 -29 57 -8 145 -8 231 1 l62 6 0 -34 c0 -40 -27 -134 -69 -243 -17
-44 -30 -89 -29 -100 6 -43 30 -16 59 65 17 47 40 110 51 140 11 30 23 80 25
112 5 49 3 57 -13 61 -11 3 -4 5 16 6 19 1 81 10 138 20 l102 17 0 -28 c0 -16
-16 -70 -36 -121 -32 -83 -67 -193 -81 -254 -8 -36 24 -29 76 15 65 54 101 77
101 63 0 -7 -10 -33 -21 -59 -15 -32 -18 -51 -12 -62 15 -22 38 -18 39 6 1 12
11 47 24 77 13 30 20 62 17 71 -10 25 -60 19 -103 -12 -64 -46 -64 -46 -52 -5
14 50 95 273 108 295 16 28 12 48 -10 48 -10 0 -24 -8 -29 -17 -10 -17 -10
-17 -11 -1 0 9 -3 18 -7 20 -5 2 -71 -6 -148 -19z"/>
<path d="M12016 6888 c-18 -26 -21 -48 -5 -48 12 0 8 -19 -28 -112 l-26 -68
-41 0 c-61 0 -86 -10 -86 -32 0 -17 5 -18 50 -12 28 4 50 4 50 1 0 -4 -12 -31
-27 -61 -38 -79 -18 -110 58 -87 55 17 55 46 -1 38 l-39 -5 30 59 c25 50 33
59 57 59 34 0 57 14 48 29 -4 6 -19 11 -33 11 -20 0 -24 3 -17 18 19 45 53
151 59 190 6 38 5 42 -14 42 -11 0 -27 -10 -35 -22z"/>
<path d="M13997 6904 c-4 -4 -5 -21 -1 -38 4 -24 -4 -50 -36 -113 l-41 -82
-57 -3 -57 -3 0 -34 c0 -39 23 -55 32 -22 3 13 13 21 28 21 l22 0 -25 -50
c-13 -27 -27 -70 -30 -95 -4 -41 -3 -45 17 -45 17 0 21 6 21 31 0 17 14 60 31
95 29 62 31 64 67 64 56 0 83 10 80 29 -3 12 -13 15 -44 13 l-41 -3 39 77 c30
60 38 87 36 118 -3 39 -23 58 -41 40z"/>
<path d="M5517 6875 c-13 -9 -16 -20 -11 -39 7 -29 -36 -258 -68 -354 -16 -51
-17 -66 -7 -78 21 -25 44 -12 45 26 1 19 15 96 32 170 55 238 57 310 9 275z"/>
<path d="M5098 6833 c-20 -5 -30 -34 -59 -168 -20 -93 -60 -195 -77 -195 -19
0 -33 47 -32 108 3 122 1 142 -15 148 -25 10 -62 -47 -116 -179 -79 -193 -89
-180 -38 50 33 151 34 217 2 211 -12 -2 -16 -19 -18 -68 -2 -36 -12 -99 -24
-140 -41 -154 -37 -230 13 -230 30 0 48 29 106 173 24 59 46 107 49 107 3 0 5
-36 3 -79 -3 -79 -3 -80 32 -118 29 -32 38 -36 53 -27 31 18 71 105 93 199 34
151 42 175 56 175 8 0 14 9 14 20 0 20 -8 22 -42 13z"/>
<path d="M14515 6790 c-11 -18 6 -50 26 -50 21 0 24 12 9 41 -12 21 -25 25
-35 9z"/>
<path d="M2354 6760 c-23 -16 -45 -37 -48 -45 -3 -8 -12 -15 -19 -15 -16 0
-97 -266 -105 -342 -4 -39 -2 -48 11 -48 23 0 42 42 62 136 15 68 21 81 35 77
47 -12 163 87 175 149 3 18 0 51 -7 73 -17 53 -48 57 -104 15z m70 -36 c8 -32
0 -60 -31 -100 -24 -33 -81 -67 -95 -58 -27 17 19 115 74 158 41 32 44 32 52
0z"/>
<path d="M11692 6738 c2 -12 10 -23 18 -23 22 0 19 39 -3 43 -15 3 -18 -1 -15
-20z"/>
<path d="M10885 6739 c-7 -11 27 -49 43 -49 15 0 44 38 37 49 -8 14 -72 14
-80 0z"/>
<path d="M8411 6716 c-9 -11 -8 -18 4 -30 33 -32 64 -14 39 22 -18 26 -27 27
-43 8z"/>
<path d="M2873 6705 c-49 -21 -81 -98 -74 -178 0 -12 7 -17 18 -15 12 2 18 15
20 46 4 55 27 100 59 112 14 6 28 9 32 9 37 -6 45 25 10 35 -29 7 -27 8 -65
-9z"/>
<path d="M5220 6701 c0 -23 37 -38 54 -21 8 8 6 15 -8 26 -27 20 -46 18 -46
-5z"/>
<path d="M2594 6685 c-14 -14 -35 -46 -46 -72 -20 -45 -20 -47 -2 -60 23 -16
32 -16 67 1 25 14 27 14 27 -7 0 -12 4 -28 9 -36 12 -19 45 -6 37 15 -3 9 -6
42 -6 75 0 71 -10 74 -58 19 -43 -51 -54 -44 -18 11 26 38 30 40 69 37 32 -2
42 1 45 13 2 10 -6 19 -20 23 -46 12 -79 6 -104 -19z"/>
<path d="M5734 6694 c-16 -8 -32 -21 -36 -27 -14 -22 -8 -72 13 -111 25 -47
18 -57 -50 -64 -54 -5 -61 1 -34 30 26 29 2 46 -32 24 -39 -26 -42 -46 -11
-73 33 -28 95 -31 146 -5 43 21 49 50 21 96 -23 37 -27 81 -9 92 7 4 27 7 45
6 23 -2 35 2 39 13 8 19 6 21 -32 28 -19 4 -42 0 -60 -9z"/>
<path d="M12290 6703 c-24 -9 -81 -66 -91 -91 -12 -32 5 -60 46 -78 44 -18
159 -19 174 -1 17 21 3 27 -63 27 -68 0 -106 8 -106 21 0 5 8 9 18 9 30 1 100
37 111 59 21 38 -36 73 -89 54z m50 -38 c0 -7 -57 -35 -72 -35 -20 1 32 40 53
40 10 0 19 -2 19 -5z"/>
<path d="M16225 6686 c-54 -25 -89 -58 -99 -93 -5 -16 1 -31 23 -55 29 -32 31
-33 126 -36 87 -4 101 -2 150 23 51 25 68 46 46 60 -5 3 -31 -6 -57 -20 -39
-21 -60 -25 -128 -25 -56 0 -76 3 -66 10 8 5 26 10 39 10 28 0 91 60 91 87 0
29 -29 63 -53 63 -12 0 -44 -11 -72 -24z m80 -27 c19 -29 -81 -83 -110 -59 -6
5 -15 7 -18 3 -4 -3 -7 -3 -7 0 0 9 102 67 117 67 6 0 15 -5 18 -11z"/>
<path d="M6239 6633 c-68 -66 -69 -66 -54 -29 21 49 16 81 -10 81 -15 0 -20
-7 -22 -31 -1 -35 -24 -94 -52 -133 -13 -17 -17 -32 -11 -41 13 -20 49 1 127
74 l63 59 -24 -53 c-13 -29 -22 -58 -19 -66 17 -46 210 -42 201 5 -2 10 -11
15 -23 12 -58 -10 -118 -12 -126 -4 -6 6 4 39 27 86 30 63 34 80 24 92 -7 8
-17 15 -22 15 -6 0 -41 -30 -79 -67z"/>
<path d="M14932 6673 c-24 -8 -46 -21 -49 -28 -2 -8 5 -35 16 -61 12 -25 21
-50 21 -55 0 -15 -63 -10 -81 7 -19 17 -39 12 -39 -11 0 -24 43 -45 92 -45 75
0 93 33 52 97 -20 32 -17 48 11 61 36 17 56 15 71 -5 10 -14 15 -15 25 -6 10
10 10 18 1 38 -14 30 -52 32 -120 8z"/>
<path d="M5973 6668 c-6 -7 -27 -46 -47 -87 -32 -66 -35 -76 -22 -95 18 -29
40 -31 93 -11 38 15 49 25 65 62 14 33 18 55 13 82 -9 48 -21 61 -60 61 -18 0
-37 -6 -42 -12z m53 -112 c-14 -34 -46 -56 -82 -56 -26 0 36 103 66 110 31 8
36 -7 16 -54z"/>
<path d="M11470 6657 c0 -39 -108 -167 -140 -167 -11 0 -19 28 -22 85 -2 30
-8 41 -22 43 -17 4 -18 -1 -14 -67 6 -77 18 -101 53 -101 31 0 96 50 139 106
39 50 52 84 42 109 -9 24 -36 18 -36 -8z"/>
<path d="M8543 6648 c-18 -11 -33 -26 -33 -33 0 -7 17 -29 37 -49 l37 -35 -37
-16 c-45 -19 -87 -21 -69 -3 16 16 15 38 -1 38 -18 0 -47 -33 -47 -53 0 -48
113 -46 162 3 35 36 35 45 -3 80 l-30 29 30 16 c17 8 31 22 31 30 0 21 -38 17
-77 -7z"/>
<path d="M3461 6585 c-23 -41 -48 -75 -56 -75 -15 0 -22 7 -63 59 -19 24 -42
22 -42 -4 0 -7 20 -33 44 -58 l44 -45 -74 -134 c-41 -73 -74 -137 -74 -143 0
-5 -14 -24 -32 -42 l-31 -32 26 -39 c30 -43 36 -82 11 -82 -26 0 -54 20 -64
45 -12 33 -42 22 -38 -13 4 -32 42 -61 92 -69 31 -5 42 -2 52 12 20 27 17 75
-7 114 -11 18 -19 34 -17 36 26 23 76 43 98 38 15 -3 30 -1 34 5 8 14 -19 34
-49 36 -18 1 -24 5 -20 16 4 8 58 106 122 217 105 185 125 233 94 233 -5 0
-28 -34 -50 -75z"/>
<path d="M14578 6613 c-49 -43 -74 -85 -62 -105 9 -14 32 -9 38 10 3 10 26 38
51 62 49 48 61 37 25 -22 -25 -41 -26 -68 -2 -68 19 0 62 89 62 127 0 21 -25
43 -49 43 -6 0 -34 -21 -63 -47z"/>
<path d="M14424 6632 c-3 -9 -15 -35 -26 -58 -19 -38 -19 -64 2 -64 12 0 60
86 60 108 0 26 -29 37 -36 14z"/>
<path d="M11101 6620 c-13 -11 -32 -20 -42 -20 -22 0 -72 -81 -67 -107 5 -26
42 -23 46 3 3 23 39 60 86 90 l29 18 -6 -34 c-4 -19 -10 -47 -13 -62 -5 -23
-3 -28 12 -28 33 0 59 121 32 148 -18 18 -50 14 -77 -8z"/>
<path d="M13600 6623 c-14 -10 -33 -16 -42 -15 -9 2 -19 -5 -22 -16 -4 -10
-16 -29 -28 -43 -12 -13 -30 -33 -40 -45 -16 -18 -17 -23 -4 -33 12 -10 25 -2
77 48 34 34 66 61 70 61 5 0 0 -17 -11 -39 -12 -21 -18 -46 -14 -55 8 -20 39
-17 39 4 0 8 13 41 28 73 15 32 25 62 22 67 -10 16 -48 12 -75 -7z"/>
<path d="M14195 6626 c-45 -21 -107 -82 -103 -103 5 -29 50 -38 101 -21 l46
15 6 -29 c4 -18 13 -28 24 -28 15 0 17 9 17 55 -1 31 -6 59 -12 63 -7 4 -14
18 -15 32 -5 30 -23 34 -64 16z m33 -54 c2 -7 -12 -19 -32 -27 -55 -23 -64
-17 -26 15 35 31 50 34 58 12z"/>
<path d="M11561 6578 c-11 -24 -28 -55 -38 -70 -19 -30 -9 -54 18 -43 17 7 81
134 73 147 -12 19 -34 5 -53 -34z"/>
<path d="M12989 6596 c-94 -64 -92 -163 3 -181 54 -10 113 -2 113 15 0 11 -16
16 -60 20 -70 6 -85 13 -85 43 1 36 54 87 92 87 14 0 16 -6 11 -35 -5 -30 -3
-35 15 -35 16 0 22 9 27 40 5 27 3 46 -5 55 -19 22 -71 18 -111 -9z"/>
<path d="M13345 6600 c-3 -5 -14 -10 -24 -10 -18 0 -111 -91 -111 -108 0 -41
97 -40 160 2 32 21 40 32 40 56 0 43 -48 88 -65 60z m16 -64 c8 5 9 3 4 -5 -9
-16 -67 -41 -92 -41 -13 0 -9 8 17 29 25 21 38 26 47 19 7 -5 18 -6 24 -2z"/>
<path d="M10818 6583 c-42 -49 -50 -106 -18 -123 22 -12 94 2 106 21 12 20
-11 29 -46 19 -42 -12 -46 -8 -30 30 10 24 19 30 41 30 22 0 29 5 29 20 0 16
-7 20 -33 20 -20 0 -40 -7 -49 -17z"/>
<path d="M5185 6540 c-8 -55 -2 -70 25 -70 14 0 18 8 17 38 0 20 3 47 8 60 6
19 4 22 -18 22 -23 0 -26 -5 -32 -50z"/>
<path d="M8355 6578 c-14 -43 -23 -92 -19 -100 18 -29 54 34 54 96 0 19 -29
21 -35 4z"/>
<path d="M3824 6535 c-3 -8 -3 -18 -1 -23 11 -16 -38 -86 -63 -92 -31 -7 -36
-53 -7 -58 25 -5 64 33 93 90 19 37 22 52 14 73 -11 28 -28 33 -36 10z"/>
<path d="M6590 6511 c0 -28 21 -37 36 -16 16 22 10 35 -17 35 -12 0 -19 -7
-19 -19z"/>
<path d="M1788 6296 c-1 -85 -6 -158 -11 -162 -4 -4 -13 -2 -19 4 -18 18 -63
14 -82 -7 -20 -22 -46 -102 -46 -142 0 -20 8 -34 26 -46 25 -16 28 -16 63 3
30 16 41 32 71 104 35 84 35 86 35 240 0 136 -2 155 -17 158 -14 3 -17 -14
-20 -152z m-38 -240 c-32 -85 -89 -114 -75 -37 12 69 26 93 52 88 13 -2 26 0
29 5 16 26 12 -6 -6 -56z"/>
<path d="M6965 6438 c-2 -7 -9 -34 -15 -59 -5 -26 -23 -84 -40 -130 -29 -81
-32 -85 -76 -103 -46 -19 -74 -40 -74 -57 0 -14 27 -11 62 7 35 18 35 21 3
-65 -19 -53 -16 -85 8 -89 12 -3 17 3 17 22 0 37 49 155 69 165 9 5 34 11 56
15 63 11 75 16 75 33 0 13 -9 15 -61 9 -56 -5 -60 -4 -54 12 20 48 57 171 62
209 5 36 3 43 -11 43 -9 0 -19 -6 -21 -12z"/>
<path d="M14986 6429 c-9 -13 -16 -31 -16 -40 0 -9 -25 -66 -56 -128 -53 -106
-57 -111 -87 -111 -18 0 -49 -5 -69 -11 -31 -8 -38 -15 -38 -34 0 -16 6 -25
15 -25 8 0 15 4 15 9 0 10 78 26 86 19 2 -3 -3 -21 -11 -41 -20 -48 -20 -97 0
-97 9 0 17 6 19 13 33 120 36 126 68 129 37 4 50 27 19 35 -28 7 -27 16 9 78
17 29 44 86 60 126 26 62 28 75 16 87 -12 12 -16 11 -30 -9z"/>
<path d="M9115 6404 c-79 -41 -113 -101 -126 -227 -5 -50 -14 -96 -19 -101 -6
-6 -45 -12 -88 -16 -68 -4 -77 -7 -77 -24 0 -18 6 -20 60 -17 33 1 68 4 77 7
16 5 16 2 4 -33 -8 -21 -32 -76 -54 -123 -49 -105 -68 -157 -59 -166 15 -16
36 9 65 78 16 40 48 114 70 163 l40 90 48 5 c35 4 49 9 49 20 0 10 -13 16 -43
18 l-42 3 6 72 c8 95 20 131 57 174 39 45 67 56 89 36 18 -16 38 -10 38 11 0
13 -41 46 -57 46 -4 0 -21 -7 -38 -16z"/>
<path d="M2977 6404 c-4 -4 -7 -23 -7 -43 0 -20 -14 -85 -30 -146 -32 -118
-38 -200 -17 -230 22 -29 34 -10 29 47 -3 39 5 87 28 175 30 119 36 193 14
200 -5 2 -13 0 -17 -3z"/>
<path d="M5355 6398 c-2 -7 -5 -36 -8 -63 -2 -28 -14 -78 -28 -112 -23 -60
-24 -62 -69 -70 -32 -6 -46 -14 -48 -27 -3 -16 1 -18 35 -15 l39 4 -24 -58
c-29 -73 -33 -110 -11 -115 12 -2 19 9 27 40 6 24 21 65 32 91 16 37 26 47 44
47 27 0 51 24 41 40 -4 6 -16 8 -27 4 -18 -5 -20 -3 -13 12 44 106 60 234 30
234 -9 0 -17 -6 -20 -12z"/>
<path d="M15135 6363 c-7 -37 -77 -185 -122 -256 -14 -22 -33 -64 -44 -94 -26
-77 -6 -80 72 -12 l61 53 -32 -52 c-34 -55 -34 -82 0 -82 13 0 20 7 20 20 0
11 13 42 30 68 16 27 33 63 36 81 6 26 4 31 -13 31 -11 0 -44 -19 -72 -41
l-52 -41 36 61 c56 95 115 224 122 264 5 32 3 37 -15 37 -15 0 -21 -9 -27 -37z"/>
<path d="M5513 6378 c-6 -7 -13 -31 -16 -53 -4 -22 -25 -100 -47 -173 -22 -72
-40 -139 -40 -147 0 -30 29 -14 59 34 33 50 79 99 68 71 -25 -65 -38 -123 -29
-132 14 -14 45 -2 39 15 -2 6 4 35 14 62 17 48 23 76 20 103 -1 17 -42 15 -70
-5 -24 -16 -24 -16 -17 8 29 100 55 213 50 220 -7 13 -20 11 -31 -3z"/>
<path d="M15702 6378 c-15 -15 -16 -35 -1 -40 7 -2 1 -27 -16 -68 -34 -81 -41
-90 -74 -90 -35 0 -108 -23 -123 -38 -25 -25 6 -32 65 -15 32 9 59 14 62 12 2
-3 -14 -40 -36 -83 -40 -81 -49 -130 -25 -139 18 -7 26 1 26 29 0 18 79 186
95 202 1 2 31 6 66 10 47 5 64 11 64 22 0 11 -13 15 -53 15 -28 0 -52 3 -52 7
0 3 11 30 25 60 30 65 34 128 7 128 -10 0 -23 -5 -30 -12z"/>
<path d="M2311 6283 c-14 -104 -24 -133 -45 -133 -8 0 -24 -9 -37 -20 -20 -16
-22 -21 -10 -29 9 -6 22 -6 32 0 29 15 31 12 24 -69 -6 -65 -5 -80 9 -91 9 -8
18 -12 20 -10 2 2 7 45 12 94 l9 90 40 5 c27 3 41 10 43 23 3 14 -4 17 -38 17
-35 0 -41 3 -36 18 12 43 28 172 23 186 -4 9 -12 16 -20 16 -9 0 -17 -30 -26
-97z"/>
<path d="M4433 6308 c-31 -34 -43 -62 -74 -171 -16 -54 -31 -102 -34 -107 -3
-5 -18 -11 -34 -15 -36 -8 -59 -31 -44 -46 7 -7 19 -6 37 2 14 7 29 9 33 6 12
-13 -30 -140 -64 -190 -34 -50 -38 -82 -9 -71 36 14 98 142 112 234 4 22 10
43 14 45 4 3 29 6 55 7 29 1 49 6 52 15 9 22 -4 27 -57 25 l-48 -2 20 73 c11
39 30 95 43 124 21 46 27 52 57 55 46 4 45 32 -2 36 -27 2 -41 -3 -57 -20z"/>
<path d="M16393 6284 c-3 -8 0 -27 6 -41 9 -19 15 -22 25 -14 7 6 16 8 19 4 4
-3 9 2 13 11 4 11 -1 24 -14 37 -26 23 -41 24 -49 3z"/>
<path d="M10771 6246 c-10 -12 -8 -17 9 -26 29 -15 49 2 30 25 -16 19 -24 19
-39 1z"/>
<path d="M13920 6208 c0 -29 -13 -67 -46 -130 -49 -97 -53 -131 -15 -136 20
-3 23 0 18 18 -4 15 9 52 39 111 42 84 52 127 38 163 -13 33 -34 17 -34 -26z"/>
<path d="M2771 6231 c-17 -11 -7 -41 13 -41 22 0 30 20 15 36 -9 8 -19 10 -28
5z"/>
<path d="M13745 6211 c-3 -6 -3 -25 0 -43 5 -26 -1 -47 -30 -98 -63 -114 -69
-131 -52 -148 13 -13 18 -9 39 34 14 27 39 76 57 108 25 47 31 69 29 105 -2
33 -8 47 -20 49 -9 2 -19 -2 -23 -7z"/>
<path d="M9770 6190 c-25 -25 -25 -46 0 -88 11 -18 20 -41 20 -50 0 -23 -41
-62 -64 -62 -15 0 -17 5 -12 28 13 50 12 67 -4 67 -24 0 -47 -77 -32 -109 18
-40 74 -36 118 8 40 40 45 82 13 132 -26 43 -17 59 22 39 53 -28 68 4 17 35
-41 25 -53 25 -78 0z"/>
<path d="M16551 6182 c-49 -24 -60 -46 -41 -79 9 -15 26 -33 38 -39 28 -14 18
-24 -25 -24 -25 0 -33 4 -33 18 0 26 -11 34 -27 21 -19 -16 -16 -43 7 -64 16
-14 30 -17 71 -12 28 4 58 12 66 18 21 18 12 52 -18 66 -40 19 -56 42 -38 54
25 16 82 22 99 11 27 -16 45 6 23 30 -21 23 -77 23 -122 0z"/>
<path d="M5718 6156 c-72 -55 -101 -142 -59 -180 33 -30 80 -30 166 -1 89 29
105 39 88 56 -8 8 -33 4 -92 -16 -99 -33 -141 -29 -141 14 0 26 4 29 44 33 46
6 116 50 116 73 0 16 -47 55 -65 55 -7 0 -32 -15 -57 -34z m51 -37 c-37 -28
-59 -23 -25 6 17 13 34 21 39 18 5 -3 -1 -14 -14 -24z"/>
<path d="M4087 6173 c-4 -3 -7 -12 -7 -19 0 -6 -16 -35 -35 -64 -53 -79 -45
-128 18 -116 49 9 87 56 87 106 0 30 4 39 21 43 32 9 18 29 -32 43 -24 8 -44
14 -45 14 0 0 -4 -3 -7 -7z m23 -103 c0 -21 -8 -35 -25 -46 -14 -9 -28 -14
-32 -11 -6 6 43 87 52 87 3 0 5 -13 5 -30z"/>
<path d="M7427 6169 c-10 -6 -31 -30 -46 -54 -20 -31 -31 -41 -41 -35 -21 13
-30 3 -30 -32 0 -16 -6 -42 -14 -56 -34 -64 -86 -193 -86 -212 0 -25 28 -27
38 -2 4 9 22 43 41 75 27 47 42 61 81 78 71 31 120 110 120 194 0 48 -25 66
-63 44z m3 -124 c-19 -40 -80 -99 -80 -78 0 14 60 126 78 146 17 19 17 19 20
-2 2 -12 -6 -42 -18 -66z"/>
<path d="M7635 6160 c-57 -27 -119 -86 -109 -102 5 -7 10 -28 11 -46 6 -96 96
-119 215 -54 60 32 86 58 71 73 -8 8 -28 1 -72 -26 -97 -60 -166 -59 -173 4
-3 20 6 26 55 45 39 14 64 30 75 48 14 24 14 28 -1 52 -21 31 -21 31 -72 6z
m34 -44 c-14 -13 -79 -39 -79 -31 0 2 19 15 42 29 43 25 64 27 37 2z"/>
<path d="M10009 6148 c-9 -7 -22 -24 -31 -38 -42 -69 -28 -132 36 -161 42 -18
63 -13 53 15 -3 8 -16 16 -28 18 -28 4 -51 38 -31 45 30 11 82 66 82 87 0 42
-48 61 -81 34z m41 -37 c0 -5 -12 -16 -26 -26 l-25 -16 16 25 c17 26 35 34 35
17z"/>
<path d="M12306 6129 c-47 -37 -92 -149 -70 -172 11 -11 34 5 34 24 0 24 33
90 55 113 14 14 19 14 39 1 23 -16 36 -11 36 11 0 11 -48 44 -63 44 -2 0 -16
-9 -31 -21z"/>
<path d="M1881 6110 c-51 -51 -55 -129 -9 -163 52 -39 223 -28 223 14 0 14 -5
15 -96 3 -27 -4 -62 -1 -83 6 -32 10 -36 16 -36 44 0 36 33 86 56 86 8 0 14
-4 14 -10 0 -5 -4 -10 -10 -10 -5 0 -10 -9 -10 -21 0 -31 42 -21 54 13 8 22 6
32 -9 48 -26 28 -59 25 -94 -10z"/>
<path d="M10233 6123 c-25 -19 -30 -50 -19 -100 8 -33 -9 -57 -24 -33 -13 20
-40 3 -40 -25 0 -22 4 -25 34 -25 22 0 45 9 62 23 27 24 27 24 11 64 -13 34
-14 44 -3 59 12 16 16 16 30 5 23 -19 46 1 30 27 -15 23 -54 26 -81 5z"/>
<path d="M10913 6092 c-44 -64 -43 -101 3 -116 45 -14 124 38 124 82 0 28 -50
82 -77 82 -10 0 -32 -20 -50 -48z m73 -25 c27 10 13 -23 -17 -41 -41 -24 -59
-8 -35 30 12 18 21 23 28 16 6 -6 17 -8 24 -5z"/>
<path d="M11250 6123 c-14 -9 -37 -27 -52 -41 -30 -27 -27 -29 -44 26 -7 25
-29 6 -35 -30 -3 -19 -15 -48 -27 -63 -50 -63 25 -52 101 14 19 17 37 31 40
31 3 0 3 -17 0 -38 -7 -54 11 -66 86 -57 66 8 95 23 82 43 -6 10 -18 11 -52 3
-89 -21 -94 -14 -54 64 13 27 22 52 19 57 -8 13 -38 9 -64 -9z"/>
<path d="M2508 6118 c-24 -19 -61 -96 -54 -113 8 -21 39 -19 70 6 l26 20 0
-21 c0 -28 18 -60 33 -60 10 0 13 20 12 75 -1 62 -5 78 -21 90 -24 18 -45 19
-66 3z m13 -61 l-23 -22 17 28 c10 15 20 25 23 22 3 -3 -5 -16 -17 -28z"/>
<path d="M10433 6104 c-51 -30 -60 -68 -26 -106 21 -24 -3 -35 -28 -12 -28 25
-44 1 -22 -33 18 -27 44 -29 84 -6 36 21 37 39 3 74 l-25 27 34 21 c25 15 43
19 66 15 24 -5 31 -3 31 9 0 18 -29 37 -57 37 -10 0 -37 -12 -60 -26z"/>
<path d="M16276 6074 c-30 -65 -32 -89 -10 -98 22 -8 37 3 31 24 -3 10 6 37
19 59 13 23 21 48 18 56 -12 29 -33 14 -58 -41z"/>
<path d="M10690 6060 c-34 -52 -37 -93 -7 -98 12 -2 17 3 17 17 0 12 12 39 26
61 24 37 27 70 5 70 -5 0 -23 -22 -41 -50z"/>
<path d="M12062 6085 c-68 -57 -75 -135 -11 -135 99 0 165 90 103 139 -35 27
-56 26 -92 -4z m75 -49 c-7 -20 -55 -48 -78 -44 -23 3 -23 3 10 40 28 32 35
36 52 25 10 -6 18 -16 16 -21z"/>
<path d="M7134 6060 l-26 -40 -31 26 c-31 26 -67 29 -75 6 -2 -7 9 -17 25 -22
16 -6 34 -19 40 -29 11 -17 3 -31 -59 -108 -73 -91 -114 -164 -104 -189 9 -24
33 -15 39 15 3 16 34 65 69 110 196 255 206 271 168 271 -12 0 -30 -16 -46
-40z"/>
<path d="M15295 6081 c-40 -24 -85 -78 -85 -101 0 -17 31 -44 41 -36 2 2 21 6
41 9 27 4 36 2 32 -7 -3 -7 2 -18 10 -25 12 -10 19 -2 45 45 17 32 31 66 31
76 0 23 -25 23 -42 -1 -15 -21 -69 -51 -93 -51 -12 0 -13 3 -3 19 16 26 63 52
81 45 20 -7 32 14 17 31 -17 20 -39 19 -75 -4z"/>
<path d="M8631 6067 c-5 -13 -16 -28 -24 -35 -8 -7 -20 -26 -27 -43 -11 -25
-10 -32 5 -49 38 -42 135 -7 135 48 0 37 -21 79 -46 91 -33 15 -33 15 -43 -12z
m45 -62 c9 -21 -14 -45 -43 -45 -24 0 -24 0 -6 30 19 33 40 39 49 15z"/>
<path d="M13230 6072 c-71 -36 -104 -126 -56 -157 34 -22 129 -17 134 7 3 14
-6 17 -55 20 -50 3 -58 6 -61 24 -2 14 9 32 33 53 42 37 48 37 86 10 16 -11
36 -18 45 -15 23 9 -1 45 -41 62 -43 18 -43 18 -85 -4z"/>
<path d="M2706 6055 c-16 -41 2 -111 23 -90 5 6 11 30 13 55 2 35 -1 45 -13
48 -9 2 -19 -4 -23 -13z"/>
<path d="M13483 6041 c-45 -21 -79 -62 -69 -86 9 -23 52 -36 82 -24 22 8 29 6
41 -11 12 -17 18 -18 29 -9 7 6 11 15 8 20 -3 5 2 23 10 41 9 17 16 37 16 45
0 18 -25 17 -41 -3 -11 -14 -81 -54 -94 -54 -3 0 -5 6 -5 13 0 14 60 47 86 47
20 0 14 34 -6 37 -8 2 -34 -6 -57 -16z"/>
<path d="M9577 5969 c-27 -16 -56 -81 -112 -251 -45 -137 -53 -156 -66 -143
-21 21 -89 1 -135 -39 -29 -25 -37 -40 -37 -64 0 -65 60 -90 137 -58 49 20 74
52 86 110 18 84 99 328 123 371 14 25 29 39 39 37 25 -4 33 19 13 35 -22 15
-25 16 -48 2z m-177 -471 c0 -23 -40 -49 -88 -55 -31 -4 -40 -2 -46 13 -15 40
94 109 122 76 6 -9 12 -24 12 -34z"/>
<path d="M4519 5873 c-6 -16 -15 -55 -20 -88 -5 -33 -16 -83 -24 -112 l-15
-51 -43 1 c-33 1 -54 -5 -84 -26 -41 -28 -83 -91 -83 -124 0 -24 40 -63 64
-63 83 0 190 170 221 351 9 51 21 99 27 106 5 7 7 17 3 23 -12 19 -35 10 -46
-17z m-92 -299 c5 -16 -72 -111 -98 -119 -36 -12 -47 11 -24 53 32 59 110 101
122 66z"/>
<path d="M16083 5880 c-139 -71 -353 -353 -353 -465 0 -59 14 -87 61 -117 46
-30 165 -56 181 -40 17 17 1 29 -49 37 -63 9 -129 38 -142 63 -41 77 52 247
223 410 84 80 137 104 183 83 34 -15 55 1 31 25 -26 26 -88 28 -135 4z"/>
<path d="M9205 5850 c-12 -23 -13 -35 -5 -45 8 -10 -3 -41 -50 -132 -47 -90
-60 -126 -58 -153 2 -24 9 -36 21 -38 13 -3 17 3 17 30 0 21 21 75 57 145 47
93 57 121 58 164 0 62 -17 74 -40 29z"/>
<path d="M3707 5863 c-4 -3 -7 -31 -7 -62 0 -31 -10 -89 -21 -128 -19 -64 -25
-73 -46 -73 -29 0 -43 -29 -20 -42 16 -8 15 -12 -3 -49 -23 -44 -16 -73 20
-82 25 -6 40 20 19 33 -11 7 -10 17 8 52 22 46 8 39 221 104 19 6 9 28 -14 32
-10 1 -52 -8 -91 -22 -40 -14 -73 -24 -73 -23 0 1 9 31 20 65 24 76 28 202 7
202 -8 0 -17 -3 -20 -7z"/>
<path d="M10456 5858 c-43 -157 -97 -283 -143 -330 -34 -35 -35 -37 -22 -68
20 -44 46 -47 118 -11 59 30 61 33 61 70 0 40 -23 71 -53 71 -14 0 -12 10 13
65 37 82 72 194 64 206 -8 13 -34 11 -38 -3z m-26 -331 c0 -17 -11 -28 -46
-45 l-45 -22 3 22 c3 20 59 68 79 68 5 0 9 -10 9 -23z"/>
<path d="M16926 5848 c-23 -35 -42 -85 -66 -174 l-21 -81 -44 1 c-35 1 -49 -5
-74 -28 -43 -41 -58 -89 -37 -121 32 -49 106 -21 153 58 17 28 43 95 58 147
37 127 55 170 70 170 21 0 28 19 15 35 -18 21 -37 18 -54 -7z m-106 -296 c0
-20 -53 -82 -76 -88 -30 -8 -38 -2 -30 24 11 34 54 72 81 72 14 0 25 -3 25 -8z"/>
<path d="M5625 5819 c-14 -18 -35 -50 -47 -73 -11 -22 -22 -42 -23 -44 -1 -2
-21 6 -43 18 -32 17 -54 20 -108 18 -49 -2 -69 -7 -69 -16 0 -15 85 -48 151
-58 24 -3 44 -10 44 -14 0 -25 -18 -44 -62 -66 -69 -35 -91 -59 -78 -84 6 -11
21 -27 35 -36 33 -21 54 -8 90 60 17 31 37 58 45 61 17 7 50 -29 50 -55 0 -23
36 -54 55 -46 14 5 13 10 -5 45 -26 52 -26 87 1 102 12 6 51 15 87 20 75 11
94 22 72 43 -12 11 -28 12 -83 3 -37 -6 -69 -8 -71 -6 -2 2 2 34 9 71 9 47 9
70 2 77 -16 16 -23 14 -52 -20z m-1 -103 c-6 -25 -24 -37 -24 -16 0 13 23 50
28 46 1 -2 0 -15 -4 -30z m-159 -196 c-10 -11 -22 -17 -27 -14 -5 3 -1 12 9
20 27 20 39 17 18 -6z"/>
<path d="M13494 5829 c-4 -8 -9 -30 -10 -49 -1 -19 -18 -69 -38 -111 -49 -106
-63 -161 -48 -193 7 -15 20 -26 31 -26 27 0 34 15 16 33 -22 23 -19 36 29 149
53 125 62 166 43 192 -11 16 -15 17 -23 5z"/>
<path d="M17640 5830 c0 -5 21 -37 48 -69 63 -79 87 -145 86 -241 0 -56 -5
-85 -22 -116 -31 -60 -119 -125 -231 -170 -55 -23 -72 -46 -39 -52 25 -5 153
58 221 109 83 61 112 125 111 239 0 77 -4 92 -36 160 -39 80 -96 150 -122 150
-9 0 -16 -4 -16 -10z"/>
<path d="M7155 5790 c-9 -17 -44 -73 -78 -126 l-62 -95 -50 3 c-40 2 -50 0
-53 -14 -2 -12 7 -18 38 -23 37 -6 41 -9 35 -29 -4 -11 -10 -40 -12 -63 -7
-60 15 -69 102 -42 51 16 65 24 63 37 -4 19 -15 19 -80 -2 -45 -14 -48 -14
-48 3 0 37 30 91 53 95 119 22 142 27 151 36 20 20 -8 31 -55 21 -24 -6 -54
-11 -67 -11 -22 0 -21 2 16 58 65 96 94 152 88 167 -9 23 -24 18 -41 -15z"/>
<path d="M6510 5799 c-47 -5 -111 -7 -142 -5 -46 5 -58 3 -58 -9 0 -28 40 -38
132 -31 83 5 88 5 88 -14 0 -35 -39 -124 -84 -193 -25 -38 -50 -84 -56 -103
l-12 -36 -92 3 c-85 3 -91 2 -91 -16 0 -18 9 -20 115 -25 63 -3 183 -3 265 0
124 4 150 8 150 20 0 13 -24 15 -153 15 -100 0 -152 4 -152 11 0 5 17 37 37
70 63 101 102 182 108 228 8 51 17 56 110 56 55 0 89 -6 153 -25 34 -11 30 28
-5 44 -36 17 -205 22 -313 10z"/>
<path d="M12637 5763 c-4 -3 -7 -19 -7 -35 0 -34 24 -38 40 -7 16 28 -12 63
-33 42z"/>
<path d="M17155 5740 c-12 -20 4 -62 23 -58 19 4 18 35 -3 56 -9 10 -15 11
-20 2z"/>
<path d="M15046 5701 c-20 -23 -18 -66 4 -66 8 0 16 10 18 22 2 14 11 23 25
25 31 4 28 32 -4 36 -15 2 -32 -5 -43 -17z"/>
<path d="M2061 5684 c-11 -14 -23 -41 -27 -59 -4 -22 -11 -32 -22 -31 -13 1
-17 -9 -18 -44 -1 -25 -3 -54 -5 -65 -3 -15 1 -20 16 -20 16 0 25 14 43 75 39
123 43 132 61 124 9 -4 26 -9 39 -11 33 -8 28 23 -8 42 -41 21 -55 19 -79 -11z"/>
<path d="M12299 5677 c-46 -31 -47 -51 -4 -99 33 -36 35 -42 22 -55 -10 -10
-24 -13 -41 -9 -23 6 -25 9 -16 26 9 16 8 22 -5 26 -47 19 -62 -41 -19 -75 39
-31 77 -27 108 10 14 17 26 35 26 40 0 5 -16 27 -35 48 l-36 39 23 16 c25 18
64 21 73 6 8 -13 35 -1 35 16 0 38 -81 45 -131 11z"/>
<path d="M3352 5655 c-28 -21 -21 -57 20 -101 l29 -31 -31 -13 c-27 -11 -33
-10 -50 5 -15 14 -23 16 -32 7 -16 -16 -2 -41 29 -53 34 -13 64 -5 99 24 26
22 26 24 11 53 -9 17 -23 36 -31 43 -26 22 -19 41 15 41 24 0 30 4 27 18 -4
23 -56 27 -86 7z"/>
<path d="M2239 5631 c-49 -50 -31 -111 40 -132 43 -13 73 -3 91 31 15 28 -14
39 -40 15 -12 -11 -24 -14 -34 -8 -14 8 -11 14 19 43 42 40 44 57 9 70 -40 15
-53 12 -85 -19z m47 -26 c-11 -8 -22 -12 -25 -9 -6 6 19 24 34 24 6 -1 1 -7
-9 -15z"/>
<path d="M2527 5632 c-15 -15 -29 -42 -33 -59 -5 -25 -2 -33 16 -43 12 -6 34
-8 52 -5 25 6 30 4 25 -8 -3 -8 -11 -44 -18 -78 -7 -35 -34 -124 -61 -198 -50
-139 -56 -165 -37 -177 15 -9 52 38 86 106 41 86 59 101 106 93 35 -5 39 -4
35 13 -2 12 -16 22 -41 28 -32 8 -42 6 -67 -13 l-30 -22 15 38 c8 21 26 89 39
150 14 62 33 124 42 138 9 14 14 32 10 40 -7 20 -35 19 -43 0 -5 -13 -8 -13
-20 5 -19 28 -44 25 -76 -8z m53 -37 c10 -12 7 -17 -14 -26 -32 -15 -41 -7
-24 20 15 25 21 26 38 6z"/>
<path d="M8197 5630 c-55 -35 -72 -65 -63 -113 9 -46 36 -68 91 -74 41 -5 45
-4 45 16 0 17 -6 21 -33 21 -67 0 -88 61 -36 104 38 32 71 41 98 26 17 -9 22
-8 28 6 8 21 -21 44 -57 44 -14 0 -47 -13 -73 -30z"/>
<path d="M13663 5648 c-48 -16 -123 -99 -123 -137 0 -40 49 -81 97 -81 39 0
127 43 183 90 27 22 32 31 23 41 -9 9 -28 1 -85 -35 -83 -53 -110 -63 -146
-50 -41 15 -39 34 4 34 51 0 123 36 130 65 7 26 -21 85 -39 84 -6 -1 -27 -6
-44 -11z m47 -61 c0 -11 -64 -37 -91 -37 -21 0 -21 1 -5 19 27 30 79 52 88 38
4 -7 8 -16 8 -20z"/>
<path d="M14662 5648 c-7 -7 -12 -16 -12 -20 0 -5 -19 -39 -42 -76 l-43 -67
-3 73 c-2 63 -5 73 -20 70 -26 -5 -29 -130 -5 -178 20 -39 33 -42 48 -14 6 11
34 59 64 107 46 77 52 91 39 103 -11 11 -16 12 -26 2z"/>
<path d="M8401 5618 c-87 -67 -92 -120 -13 -126 52 -4 119 29 133 66 6 15 16
35 21 46 13 24 2 33 -53 41 -41 6 -49 4 -88 -27z m89 -39 c0 -16 -64 -49 -94
-49 l-30 0 32 33 c26 27 39 33 62 29 17 -2 30 -8 30 -13z"/>
<path d="M8787 5611 c-32 -49 -121 -121 -148 -121 -23 0 -36 -27 -21 -42 8 -8
22 -5 50 9 38 19 40 19 51 1 6 -10 17 -18 24 -18 34 0 88 24 124 55 l40 34 -1
-37 c-1 -26 4 -37 15 -40 13 -2 18 9 23 55 4 32 9 66 12 76 3 10 -1 20 -12 24
-12 4 -30 -8 -65 -46 -42 -45 -113 -90 -125 -78 -3 2 16 32 41 66 44 58 53 90
29 98 -6 2 -23 -14 -37 -36z"/>
<path d="M10682 5642 c-38 -6 -109 -82 -117 -124 -11 -59 1 -87 42 -105 30
-12 47 -13 92 -4 63 13 116 41 116 62 0 17 -13 16 -93 -12 -77 -27 -115 -19
-120 24 -3 25 0 27 30 27 38 0 92 30 108 60 22 41 -10 80 -58 72z m22 -56 c-5
-14 -47 -36 -67 -36 -17 1 41 50 58 50 8 0 12 -6 9 -14z"/>
<path d="M16265 5615 c-65 -44 -99 -80 -90 -95 8 -12 83 -9 116 4 12 5 18 0
22 -23 9 -42 42 -73 75 -69 32 4 37 31 7 36 -44 8 -58 59 -25 92 22 22 25 42
10 71 -16 29 -58 23 -115 -16z m55 -30 c-19 -14 -41 -25 -49 -25 -9 0 2 12 24
25 52 32 69 32 25 0z"/>
<path d="M3090 5614 c-38 -32 -63 -79 -55 -103 8 -27 80 -63 117 -59 45 4 44
31 -2 38 -19 4 -46 13 -60 20 -25 14 -24 14 26 26 28 6 57 14 63 18 19 12 12
54 -11 70 -31 22 -41 20 -78 -10z m54 -23 c3 -5 -6 -11 -21 -14 -26 -5 -26 -4
-8 9 22 17 22 17 29 5z"/>
<path d="M11469 5613 c-62 -67 -74 -104 -38 -123 17 -10 30 -7 70 13 37 18 49
21 49 10 0 -26 28 -69 55 -83 23 -12 27 -12 35 0 7 11 1 23 -21 42 -27 25 -29
32 -23 65 4 21 13 44 21 51 24 24 16 42 -19 42 -18 -1 -49 2 -68 5 -30 6 -39
2 -61 -22z m76 -19 c14 -6 12 -10 -12 -26 -50 -34 -89 -53 -77 -37 5 8 18 26
27 42 18 27 32 32 62 21z"/>
<path d="M12764 5621 c-18 -11 -35 -24 -38 -30 -4 -6 -15 -11 -24 -11 -18 0
-66 -95 -56 -111 12 -20 35 -7 54 31 11 22 27 40 35 40 8 0 15 6 15 14 0 8 7
17 16 20 12 5 15 2 9 -11 -26 -64 -10 -69 68 -20 29 18 58 37 65 41 11 7 12
-3 7 -49 -7 -52 -6 -57 11 -53 21 4 36 54 32 106 -4 48 -31 53 -93 17 -34 -20
-44 -23 -39 -11 6 15 -11 46 -25 46 -3 0 -20 -9 -37 -19z"/>
<path d="M15412 5602 c-22 -22 -43 -49 -47 -61 -3 -12 -11 -21 -16 -21 -38 0
30 -74 79 -87 31 -7 128 11 149 28 27 23 -2 31 -66 18 -49 -9 -68 -9 -89 1
l-27 12 50 20 c28 10 61 30 75 44 24 23 24 26 10 52 -25 44 -70 42 -118 -6z
m83 -11 c6 -10 -14 -23 -62 -42 l-28 -10 29 30 c30 32 50 39 61 22z"/>
<path d="M2776 5596 c-27 -66 -29 -93 -7 -115 58 -58 198 24 189 111 -2 25 -8
33 -23 33 -16 0 -20 -6 -18 -32 2 -25 -4 -37 -32 -62 -23 -20 -46 -31 -65 -31
-17 0 -30 1 -30 3 0 2 7 27 15 55 15 51 14 72 -5 72 -6 0 -16 -15 -24 -34z"/>
<path d="M14782 5621 c-8 -4 -19 -17 -25 -28 -7 -11 -20 -31 -29 -44 -45 -64
-23 -119 49 -119 30 0 44 8 80 45 54 57 57 91 12 129 -31 26 -63 33 -87 17z
m43 -51 c4 -6 11 -8 16 -5 5 4 12 -1 15 -10 10 -25 -54 -87 -85 -83 -36 4 -37
24 -2 59 17 17 31 35 31 40 0 12 17 12 25 -1z"/>
<path d="M15174 5620 c-25 -10 -82 -74 -95 -107 -14 -36 -11 -89 5 -102 18
-15 125 -16 138 -3 17 17 -2 33 -36 32 -77 -4 -79 -3 -73 37 7 38 69 113 95
113 15 0 13 32 -3 36 -5 1 -19 -1 -31 -6z"/>
<path d="M13147 5590 c-14 -17 -29 -26 -32 -20 -17 27 -35 6 -56 -62 -12 -40
-37 -106 -56 -146 -31 -66 -35 -92 -14 -92 11 0 89 105 110 147 11 22 23 33
38 33 41 0 72 22 87 62 26 64 20 87 -30 102 -16 5 -28 -1 -47 -24z m53 -25 c0
-21 -32 -75 -44 -75 -20 0 -20 1 1 45 9 19 23 35 30 35 7 0 13 -2 13 -5z"/>
<path d="M16642 5611 c-7 -4 -21 -23 -30 -42 -20 -39 -75 -79 -110 -79 -21 0
-23 3 -18 28 4 15 16 33 26 41 26 17 26 41 0 41 -49 0 -88 -93 -55 -130 48
-53 166 5 205 100 14 33 4 55 -18 41z"/>
<path d="M17260 5596 c0 -7 -13 -16 -29 -19 -19 -4 -42 -22 -65 -53 -41 -54
-43 -64 -17 -88 18 -17 23 -17 75 -2 86 25 116 79 81 146 -16 31 -45 41 -45
16z m20 -73 c0 -19 -29 -42 -67 -52 -20 -6 -39 -9 -41 -7 -2 2 10 19 26 37 30
34 82 48 82 22z"/>
<path d="M16979 5539 c-16 -34 -28 -67 -25 -75 11 -28 32 -12 55 41 13 30 27
55 32 55 5 0 9 9 9 20 0 13 -7 20 -20 20 -14 0 -28 -17 -51 -61z"/>
<path d="M4000 5551 c-40 -40 -48 -76 -23 -109 18 -24 28 -27 87 -30 66 -3
103 9 90 29 -3 5 -31 9 -62 9 l-57 1 38 30 c40 33 46 58 21 83 -24 25 -62 19
-94 -13z m65 -21 c-3 -5 -20 -19 -37 -32 -31 -21 -31 -11 0 25 16 18 48 24 37
7z"/>
<path d="M14954 5527 c-9 -30 -14 -62 -11 -71 12 -30 32 -16 45 32 19 70 19
86 0 90 -12 2 -21 -10 -34 -51z"/>
<path d="M12500 5544 c-17 -44 -13 -66 13 -62 13 2 22 10 22 20 0 10 6 23 13
30 20 20 14 38 -13 38 -18 0 -28 -7 -35 -26z"/>
<path d="M4528 5488 c-26 -21 -32 -57 -12 -65 10 -4 19 -2 22 5 2 7 10 19 18
26 32 32 7 61 -28 34z"/>
<path d="M8709 5363 c-20 -97 -49 -216 -65 -265 -14 -43 -18 -47 -39 -42 -37
9 -118 -23 -154 -60 -28 -29 -31 -37 -22 -55 16 -28 56 -37 108 -22 65 17 88
36 117 96 26 56 68 201 85 295 5 31 13 68 16 83 6 23 4 27 -13 27 -17 0 -23
-10 -33 -57z m-99 -351 c0 -18 -37 -41 -82 -53 -56 -15 -73 -5 -38 22 38 29
120 50 120 31z"/>
<path d="M7267 5363 c-2 -5 -19 -53 -37 -108 -18 -55 -52 -151 -76 -213 -24
-63 -44 -122 -44 -133 0 -25 38 -46 46 -25 3 8 3 19 0 25 -4 5 18 74 48 153
67 178 99 284 91 298 -7 12 -22 13 -28 3z"/>
<path d="M7506 5358 c-8 -28 -88 -250 -102 -283 -12 -29 -20 -36 -55 -41 -42
-7 -60 -27 -41 -46 8 -8 19 -8 38 1 25 11 26 10 20 -11 -12 -43 -19 -107 -13
-122 11 -27 37 -7 37 29 0 42 19 97 38 113 9 6 30 12 48 12 18 0 35 4 38 9 10
15 -23 33 -53 29 l-29 -4 20 45 c32 75 88 242 88 262 0 21 -28 26 -34 7z"/>
<path d="M13977 5335 c-9 -8 -29 -77 -47 -152 -39 -171 -53 -206 -104 -249
-69 -59 -86 -32 -29 44 19 26 28 31 38 22 32 -27 47 16 16 44 -18 16 -22 16
-41 3 -63 -44 -115 -168 -76 -183 53 -20 150 47 186 129 10 23 30 99 46 170
23 106 31 127 46 127 24 0 24 36 -1 50 -15 7 -23 6 -34 -5z"/>
<path d="M16080 5233 c-43 -48 -91 -125 -122 -194 -25 -55 -26 -56 -79 -65
-41 -7 -55 -14 -57 -28 -4 -17 1 -18 37 -13 23 3 41 3 41 0 0 -16 -74 -123
-105 -153 -45 -43 -79 -96 -70 -110 8 -13 35 -13 35 0 0 5 26 38 58 73 31 35
75 94 96 131 42 73 46 75 146 78 52 2 65 6 68 20 3 15 -7 18 -72 20 l-76 3 38
72 c35 69 105 163 120 163 4 0 13 -14 19 -31 15 -38 39 -34 35 6 -9 76 -59 89
-112 28z"/>
<path d="M10937 5233 c-3 -4 -3 -20 0 -36 4 -18 12 -27 25 -27 16 0 19 6 16
32 -3 31 -29 51 -41 31z"/>
<path d="M4267 5202 c-24 -5 -17 -36 9 -40 11 -2 26 4 33 12 10 12 9 16 -6 24
-10 4 -26 7 -36 4z"/>
<path d="M3195 5193 c-52 -13 -59 -63 -21 -156 22 -52 22 -58 7 -66 -24 -13
-61 5 -61 29 0 24 -28 39 -40 20 -18 -29 21 -81 69 -93 27 -7 76 15 84 37 4 9
-5 45 -18 81 -14 36 -25 74 -25 85 0 28 45 38 70 15 19 -17 50 -15 50 4 0 5
-12 19 -26 30 -26 20 -48 24 -89 14z"/>
<path d="M3488 5173 c-30 -34 -50 -87 -55 -142 -4 -48 -2 -59 15 -74 41 -37
147 -43 140 -8 -2 10 -14 16 -34 17 -63 2 -84 12 -84 42 0 23 8 30 50 49 28
12 53 29 56 37 11 28 -4 61 -35 79 -36 21 -34 21 -53 0z m50 -51 c2 -6 -11
-18 -28 -27 l-31 -16 16 31 c16 30 35 36 43 12z"/>
<path d="M7675 5160 c-8 -13 13 -40 31 -40 20 0 27 19 14 35 -14 17 -36 19
-45 5z"/>
<path d="M8942 5158 c-7 -7 -12 -25 -12 -40 0 -38 37 -40 46 -2 8 32 -15 61
-34 42z"/>
<path d="M13684 5156 c-9 -22 2 -46 21 -46 12 0 15 8 13 27 -3 30 -25 42 -34
19z"/>
<path d="M13512 5073 c-22 -43 -49 -89 -61 -103 -24 -30 -25 -28 -25 85 -1 62
-3 70 -20 70 -17 0 -20 -8 -22 -70 -2 -77 12 -132 38 -149 14 -9 23 -6 42 14
32 33 118 190 114 209 -7 36 -30 17 -66 -56z"/>
<path d="M9900 5120 c-16 -16 -20 -33 -20 -79 0 -65 -14 -116 -30 -106 -5 3
-9 18 -7 33 3 37 -14 42 -33 10 -13 -25 -13 -31 0 -55 10 -18 26 -29 42 -31
40 -5 61 35 68 127 4 69 7 76 27 79 14 2 30 -6 44 -22 24 -27 39 -26 39 4 0
26 -47 60 -81 60 -16 0 -38 -9 -49 -20z"/>
<path d="M3736 5120 c-35 -11 -66 -38 -66 -59 0 -9 14 -34 30 -55 23 -30 27
-42 19 -53 -15 -18 -45 -17 -53 2 -8 22 -36 18 -36 -4 0 -53 75 -69 115 -25
32 34 31 42 -5 92 -16 23 -30 44 -30 46 0 11 64 25 90 19 23 -4 30 -2 30 10 0
17 -30 38 -52 36 -7 0 -26 -5 -42 -9z"/>
<path d="M3953 5111 c-24 -11 -43 -25 -43 -32 0 -7 12 -32 26 -57 26 -43 26
-46 8 -59 -11 -8 -30 -11 -51 -7 -29 5 -33 4 -33 -15 0 -36 35 -45 86 -21 55
27 65 56 34 105 -26 42 -21 51 35 63 25 5 40 14 40 22 0 23 -54 23 -102 1z"/>
<path d="M10650 5107 c-36 -18 -37 -57 -4 -96 25 -31 26 -33 8 -45 -16 -12
-20 -12 -30 3 -17 21 -37 2 -32 -30 4 -32 36 -35 82 -9 44 27 47 55 10 99 -33
39 -23 55 27 47 34 -5 39 -4 39 13 0 32 -54 41 -100 18z"/>
<path d="M12318 5113 c0 -4 -2 -27 -3 -50 -1 -50 -46 -106 -80 -101 -18 3 -20
9 -17 72 l3 69 -46 -5 c-75 -9 -179 -108 -146 -141 9 -9 20 -3 48 31 28 34 78
72 95 72 2 0 1 -24 0 -54 -3 -49 -1 -56 22 -71 75 -49 173 45 162 155 -2 23
-34 42 -38 23z"/>
<path d="M8215 5073 c-100 -97 -71 -176 70 -185 40 -2 50 0 53 14 2 13 -7 18
-45 24 -60 9 -93 21 -93 34 0 5 7 10 17 10 24 0 101 47 113 69 7 14 5 25 -11
45 -28 36 -59 33 -104 -11z m70 -13 c6 -10 -55 -53 -64 -45 -5 6 39 55 50 55
4 0 11 -4 14 -10z"/>
<path d="M10369 5087 c-40 -27 -47 -56 -20 -82 20 -17 20 -19 3 -31 -15 -12
-16 -14 -1 -29 12 -12 21 -14 42 -6 37 14 36 52 0 80 -24 17 -26 22 -13 31 8
6 26 13 40 16 32 8 51 24 44 35 -10 17 -61 9 -95 -14z"/>
<path d="M11369 5080 c-24 -16 -54 -37 -67 -46 -21 -16 -22 -16 -20 7 2 15 -3
24 -14 27 -12 2 -20 -7 -28 -37 -6 -22 -22 -54 -37 -71 -18 -23 -23 -34 -15
-42 13 -13 38 1 132 77 36 29 75 58 87 64 l22 11 -19 -46 c-26 -60 -25 -82 5
-96 48 -22 179 21 151 49 -4 4 -34 1 -67 -6 -34 -7 -63 -10 -66 -7 -3 2 5 26
16 51 12 26 21 58 21 71 0 34 -44 32 -101 -6z"/>
<path d="M15161 5093 c-38 -19 -119 -108 -127 -141 -13 -50 38 -64 146 -41 38
8 55 8 63 0 6 -6 30 -11 54 -11 37 0 50 6 88 41 52 48 78 111 54 134 -11 10
-29 12 -77 6 -69 -8 -116 -42 -127 -91 -5 -23 -14 -29 -56 -38 -28 -7 -64 -12
-81 -12 l-30 0 30 40 c16 22 41 50 57 62 26 20 29 20 40 5 19 -26 35 -20 35
13 0 41 -26 53 -69 33z m249 -49 c0 -14 -43 -75 -63 -89 -12 -8 -34 -15 -49
-15 -22 0 -28 5 -28 23 1 38 33 70 81 77 24 4 47 8 52 9 4 0 7 -2 7 -5z"/>
<path d="M4665 5045 c-63 -57 -78 -63 -49 -20 16 24 16 28 1 42 -17 17 -51 10
-45 -9 3 -7 -5 -38 -18 -70 -12 -31 -19 -59 -16 -62 13 -14 40 -3 87 34 l50
40 5 -38 c4 -33 9 -38 45 -50 26 -9 60 -11 98 -7 48 6 57 10 57 27 0 19 -4 20
-54 14 -108 -14 -131 14 -81 99 44 75 3 75 -80 0z"/>
<path d="M6752 5088 c-10 -12 -42 -124 -42 -146 0 -22 33 -42 69 -42 72 0 137
65 143 145 4 57 -22 54 -39 -4 -17 -61 -57 -101 -100 -101 -18 0 -33 3 -33 8
0 4 9 35 19 69 15 50 16 64 6 73 -9 7 -15 7 -23 -2z"/>
<path d="M7861 5045 l-57 -54 -22 21 c-17 17 -24 20 -34 10 -9 -9 -9 -15 0
-24 17 -17 15 -31 -13 -72 -27 -40 -32 -66 -12 -66 7 0 50 38 97 85 46 46 86
83 88 81 2 -2 -4 -21 -12 -41 -9 -21 -16 -44 -16 -51 0 -26 35 -13 75 26 22
22 42 40 45 40 3 0 11 -20 18 -45 9 -35 16 -45 33 -45 18 0 20 4 14 23 -4 12
-10 44 -14 72 -7 61 -29 70 -72 29 -26 -25 -29 -26 -29 -8 0 10 4 25 9 33 5 8
7 20 4 28 -10 26 -46 12 -102 -42z"/>
<path d="M10096 5053 c-19 -27 -38 -59 -41 -72 -8 -30 18 -69 50 -77 37 -9 95
4 95 21 0 16 -7 18 -56 15 -40 -2 -53 16 -18 24 37 10 72 35 79 56 3 11 -1 33
-10 50 -24 46 -57 41 -99 -17z m53 -35 c-41 -34 -47 -18 -11 25 12 13 17 15
24 5 5 -8 0 -19 -13 -30z"/>
<path d="M17575 5088 c-24 -14 -54 -49 -55 -64 0 -6 -9 -19 -20 -29 -24 -22
-28 -85 -6 -85 8 0 18 4 21 10 3 6 22 -1 45 -15 47 -30 67 -30 139 -6 39 14
57 26 64 43 4 12 17 33 28 45 20 20 20 22 4 47 -17 26 -39 34 -49 18 -2 -4 -1
-14 4 -21 14 -24 -27 -77 -73 -95 -51 -19 -66 -20 -90 -2 -18 14 -18 14 2 21
34 10 91 72 91 98 0 39 -63 59 -105 35z m59 -37 c7 -10 -52 -61 -71 -61 -10 0
-11 5 -3 19 22 43 61 64 74 42z"/>
<path d="M6419 5059 c-22 -31 -23 -32 -31 -10 -12 33 -31 21 -41 -25 -4 -21
-23 -69 -41 -106 -27 -53 -31 -70 -21 -78 10 -8 25 7 66 62 28 40 63 87 77
103 l25 30 -7 -38 c-4 -21 -10 -45 -13 -53 -3 -7 2 -17 11 -20 10 -4 34 9 66
36 27 23 50 40 50 37 0 -2 -7 -21 -15 -42 -9 -20 -13 -45 -10 -56 7 -22 52
-36 67 -21 13 13 2 32 -18 32 -19 0 -19 0 16 77 47 103 25 122 -57 51 l-48
-41 -5 44 c-7 58 -37 66 -71 18z"/>
<path d="M8850 5038 c-47 -82 -54 -153 -15 -153 17 0 20 7 21 40 0 24 11 61
28 92 26 47 28 73 6 73 -5 0 -23 -24 -40 -52z"/>
<path d="M15570 5061 c-42 -36 -47 -37 -46 -9 1 35 -32 36 -40 1 -4 -15 -15
-49 -26 -75 -11 -26 -17 -55 -14 -64 5 -14 20 -4 74 48 37 36 78 71 91 78 22
11 21 8 -11 -36 -41 -55 -50 -87 -28 -91 20 -4 102 122 98 150 -5 36 -55 34
-98 -2z"/>
<path d="M17027 5076 c-82 -30 -161 -106 -142 -136 11 -19 28 -10 75 39 42 44
105 78 131 69 5 -2 -4 -21 -20 -43 -33 -43 -41 -85 -16 -85 9 0 20 10 26 23 5
12 21 37 34 56 14 19 25 39 25 45 -1 38 -55 53 -113 32z"/>
<path d="M14082 5028 c-57 -76 -64 -92 -52 -122 13 -34 67 -67 105 -64 34 3
42 31 10 36 -49 8 -75 25 -75 48 0 22 4 24 48 24 54 0 92 21 92 51 0 24 -52
79 -74 79 -8 0 -33 -24 -54 -52z m82 -29 c-6 -11 -54 -12 -54 -2 0 3 8 15 17
25 16 18 18 18 30 2 7 -9 10 -21 7 -25z"/>
<path d="M4378 5054 c-14 -7 -36 -30 -48 -49 -26 -42 -21 -77 15 -101 20 -13
30 -14 59 -4 67 22 105 96 76 150 -12 22 -63 24 -102 4z m72 -54 c0 -37 -75
-84 -92 -58 -12 20 -10 28 21 58 31 32 71 32 71 0z"/>
<path d="M9154 5061 c-44 -7 -92 -37 -124 -78 -46 -59 -8 -96 66 -64 45 20 45
20 83 0 53 -27 174 -32 179 -6 3 14 -4 17 -35 17 -44 1 -121 15 -130 24 -3 3
2 21 12 39 18 34 18 69 0 72 -5 1 -28 -1 -51 -4z m4 -53 c-2 -6 -29 -24 -59
-41 l-54 -29 42 41 c40 39 79 55 71 29z"/>
<path d="M10843 5053 c-3 -10 -12 -32 -18 -49 -14 -34 -5 -60 18 -51 15 6 41
92 32 108 -10 15 -25 11 -32 -8z"/>
<path d="M11045 5056 c-31 -13 -95 -79 -95 -97 0 -55 66 -71 144 -36 51 23 56
29 56 57 0 38 -34 90 -58 90 -9 -1 -31 -7 -47 -14z m63 -62 c3 -18 -6 -25 -42
-39 -25 -10 -53 -14 -62 -11 -15 6 -12 12 17 42 39 40 82 44 87 8z"/>
<path d="M16475 5060 c-45 -9 -107 -72 -126 -127 -19 -58 13 -73 49 -23 13 17
29 30 37 30 17 0 20 21 5 36 -20 20 25 46 87 49 42 1 59 6 61 17 5 26 -38 32
-113 18z"/>
<path d="M14408 5049 c-24 -13 -88 -98 -88 -115 0 -8 9 -23 20 -34 30 -30 95
-27 161 9 62 33 83 62 67 97 -20 43 -116 69 -160 43z m107 -43 c10 -7 16 -20
12 -28 -13 -35 -145 -75 -161 -50 -6 11 53 84 63 78 4 -3 13 -1 21 5 21 13 43
11 65 -5z"/>
<path d="M16240 5053 c-24 -9 -90 -75 -107 -107 -21 -40 -9 -74 32 -92 61 -25
144 -15 133 17 -3 9 -20 12 -54 10 -30 -1 -56 3 -68 12 -17 12 -17 16 -3 44
18 33 85 89 95 78 7 -6 -16 -28 -70 -67 -17 -12 -20 -19 -12 -28 25 -25 124
46 124 90 0 42 -27 59 -70 43z"/>
<path d="M16681 5026 c-39 -41 -39 -76 0 -90 19 -6 35 -5 57 6 31 16 31 16 20
-8 -14 -29 3 -74 28 -74 12 0 15 6 10 25 -4 15 0 37 9 55 20 39 19 62 -6 94
-30 38 -76 36 -118 -8z m77 -18 c-6 -16 -57 -42 -66 -33 -9 9 36 45 55 45 8 0
13 -6 11 -12z"/>
<path d="M4175 5027 c-20 -17 -28 -35 -32 -70 -5 -43 -4 -47 16 -47 17 0 21 6
21 33 0 38 7 50 38 66 12 6 22 18 22 26 0 22 -35 18 -65 -8z"/>
<path d="M13597 4989 c-16 -54 -14 -79 8 -79 15 0 40 93 31 115 -10 28 -24 15
-39 -36z"/>
<path d="M17248 5009 c-81 -43 -88 -106 -15 -139 64 -29 151 -24 145 9 -3 12
-13 15 -44 13 -47 -4 -118 22 -112 40 9 26 60 53 101 53 35 0 42 3 42 20 0 28
-67 31 -117 4z"/>
<path d="M7577 4988 c-33 -29 -43 -120 -15 -126 14 -3 18 7 24 47 5 38 11 52
26 57 20 6 21 35 2 41 -7 2 -23 -6 -37 -19z"/>
<path d="M5390 4868 c-16 -40 -47 -71 -71 -73 -29 -2 -48 -30 -32 -46 29 -29
143 64 143 116 0 32 -27 33 -40 3z"/>
<path d="M2080 4620 c-46 -11 -124 -94 -137 -147 -16 -65 -2 -95 90 -197 91
-101 114 -148 104 -213 -18 -107 -193 -193 -270 -132 -34 26 -57 103 -57 188
0 70 16 115 51 138 22 16 17 33 -10 33 -24 0 -56 -38 -71 -84 -19 -60 -8 -195
21 -253 32 -63 75 -86 150 -80 72 6 126 35 177 92 52 59 62 113 38 191 -13 40
-36 74 -101 145 -46 51 -86 102 -87 113 -13 80 95 194 159 169 7 -3 10 -9 7
-14 -6 -10 -15 -85 -18 -139 -1 -30 3 -36 22 -38 77 -11 103 133 35 199 -34
33 -57 39 -103 29z m96 -161 c-8 -19 -15 -29 -15 -22 -1 18 19 67 25 61 3 -3
-2 -21 -10 -39z"/>
<path d="M5232 4523 c-22 -8 -34 -41 -21 -61 9 -14 4 -39 -26 -122 -20 -58
-42 -120 -48 -139 -12 -37 -52 -60 -116 -65 -29 -3 -37 -8 -39 -26 -4 -21 -1
-22 35 -17 21 3 49 9 62 13 22 6 23 5 17 -17 -15 -52 -17 -124 -4 -149 11 -20
21 -25 53 -25 30 0 41 4 43 18 3 13 -3 17 -27 17 -25 0 -32 5 -37 26 -7 27 9
118 25 143 9 14 75 19 126 10 12 -3 21 2 23 13 4 21 -58 43 -99 34 -16 -3 -29
-4 -29 -3 0 1 20 61 45 132 54 155 60 233 17 218z"/>
<path d="M2760 4486 c-76 -13 -90 -21 -90 -47 0 -21 20 -25 38 -7 9 9 12 8 12
-5 0 -9 5 -17 11 -17 14 0 6 -101 -11 -162 -8 -29 -15 -36 -28 -31 -28 10 -42
24 -42 44 0 12 -7 19 -20 19 -31 0 -27 -53 6 -79 15 -12 33 -21 40 -21 19 0
18 -12 -11 -80 -53 -126 -65 -225 -27 -218 11 2 17 16 19 43 2 38 20 98 58
196 l18 46 63 6 c122 12 234 96 262 198 14 51 -7 95 -52 114 -42 18 -153 18
-246 1z m245 -50 c21 -21 23 -29 15 -57 -23 -79 -123 -154 -219 -166 l-49 -6
14 64 c7 35 13 79 14 97 0 32 16 70 35 84 6 4 45 8 88 8 69 0 81 -3 102 -24z"/>
<path d="M12078 4479 c-52 -27 -95 -104 -104 -187 -5 -45 -13 -71 -30 -92 -29
-33 -88 -64 -129 -66 -16 0 -49 -2 -72 -2 -30 -2 -43 -6 -43 -17 0 -24 39 -38
86 -31 42 5 44 4 44 -20 0 -35 -25 -81 -78 -139 -80 -89 -103 -175 -61 -229
23 -30 68 -34 144 -15 56 14 65 26 56 69 -8 43 -35 47 -39 7 -4 -32 -32 -47
-92 -47 -40 0 -50 11 -50 56 0 34 21 72 75 135 58 68 85 119 85 162 0 29 6 38
51 67 64 41 85 76 93 154 8 74 39 133 84 159 32 19 33 19 47 1 11 -15 16 -16
26 -7 10 10 10 18 1 38 -14 31 -42 32 -94 4z"/>
<path d="M17556 4438 c-23 -63 -23 -82 -4 -86 12 -2 20 7 28 37 19 70 63 43
75 -46 9 -69 -18 -127 -80 -172 -57 -41 -88 -85 -83 -116 4 -19 -1 -26 -23
-35 -38 -16 -51 -57 -39 -122 28 -144 -10 -258 -85 -258 -36 0 -62 24 -74 66
-9 34 -35 39 -39 7 -5 -32 24 -80 58 -98 16 -8 47 -15 69 -15 33 0 44 5 65 33
48 63 60 110 51 205 -9 107 -9 131 0 140 4 4 34 9 68 12 46 4 62 9 62 20 0 8
-12 17 -29 20 -16 3 -34 13 -40 23 -9 15 -5 24 29 55 22 21 49 44 60 52 12 8
32 33 45 55 21 33 25 52 24 105 -2 82 -15 115 -56 140 -49 30 -64 26 -82 -22z"/>
<path d="M6257 4464 c-4 -4 -7 -22 -7 -39 0 -40 -23 -117 -55 -188 -25 -55
-27 -56 -78 -64 -38 -6 -53 -13 -55 -27 -3 -16 2 -18 42 -15 25 2 46 2 46 -1
0 -3 -7 -30 -15 -60 -20 -74 -19 -106 5 -130 23 -23 70 -26 119 -9 39 14 40
46 1 40 -14 -2 -41 -5 -60 -5 l-35 -1 2 47 c2 25 11 68 20 94 17 46 20 48 88
72 39 13 90 27 115 31 31 4 46 11 48 24 5 25 -58 22 -145 -7 l-71 -24 22 51
c32 73 48 138 44 177 -3 32 -17 48 -31 34z"/>
<path d="M2445 4440 c-4 -6 -1 -17 5 -25 17 -21 8 -71 -51 -270 -98 -333 -97
-331 -87 -348 10 -19 53 -23 64 -5 4 6 -1 17 -10 24 -20 14 -17 31 34 189 42
130 100 348 100 374 0 12 7 29 15 38 8 8 13 19 10 24 -8 12 -72 11 -80 -1z"/>
<path d="M10545 4438 c-2 -7 -13 -55 -24 -106 -13 -59 -33 -115 -56 -157 -36
-64 -37 -65 -80 -65 -42 0 -73 -19 -61 -39 4 -5 22 -7 41 -4 19 3 35 4 35 2 0
-2 -9 -28 -20 -57 -25 -65 -26 -95 -4 -90 10 2 22 21 29 43 6 22 19 54 28 72
15 29 22 32 55 30 27 -1 37 2 37 13 0 8 -10 16 -22 18 -13 2 -23 7 -23 12 0 5
15 39 34 77 34 67 74 232 61 253 -9 14 -25 13 -30 -2z"/>
<path d="M8994 4426 c-34 -24 -63 -105 -84 -238 -23 -139 -66 -243 -110 -265
-53 -26 -24 44 31 75 28 16 35 42 14 49 -18 5 -75 -36 -95 -69 -59 -97 26
-144 104 -58 44 48 74 131 92 249 18 120 22 137 47 189 13 28 25 42 39 42 13
0 18 6 16 17 -4 23 -28 27 -54 9z"/>
<path d="M8455 4406 c-13 -13 -31 -47 -42 -76 -87 -249 -98 -275 -118 -276
-67 -1 -135 -65 -135 -125 0 -54 83 -64 129 -15 23 24 107 230 137 333 20 69
39 110 66 140 19 21 18 43 -3 43 -5 0 -21 -11 -34 -24z m-170 -425 c-24 -48
-85 -81 -85 -47 0 26 50 76 76 76 24 0 24 -1 9 -29z"/>
<path d="M13727 4399 c-12 -7 -15 -17 -11 -33 7 -29 -12 -74 -79 -193 -49 -87
-54 -93 -84 -93 -38 0 -47 -28 -13 -37 11 -3 20 -6 20 -7 0 -2 -7 -24 -16 -49
-29 -86 4 -125 80 -93 61 25 33 53 -31 32 -29 -9 -30 12 -5 69 l18 40 80 10
c59 7 79 14 79 25 0 12 -13 15 -68 13 l-68 -2 31 52 c44 73 96 186 103 224 7
37 -9 57 -36 42z"/>
<path d="M14552 4367 c-5 -6 -13 -23 -17 -37 -4 -14 -27 -63 -50 -110 -63
-128 -97 -218 -105 -283 -5 -47 -4 -60 8 -64 19 -8 32 14 32 54 0 43 39 148
105 285 53 109 65 151 46 162 -5 3 -13 0 -19 -7z"/>
<path d="M11410 4305 c0 -61 -19 -106 -116 -272 -56 -94 -63 -117 -41 -126 26
-10 67 5 67 24 0 11 -7 19 -15 19 -10 0 1 26 36 86 88 148 111 205 107 266 -2
41 -7 54 -20 56 -15 3 -18 -5 -18 -53z"/>
<path d="M16820 4315 c0 -14 13 -46 29 -72 16 -27 37 -74 46 -106 l17 -58 -44
-47 c-23 -26 -71 -69 -105 -95 -59 -45 -80 -77 -49 -77 17 0 98 60 165 124 40
38 55 47 59 36 10 -28 115 -130 134 -130 30 0 20 26 -24 62 -24 20 -53 53 -65
74 l-22 40 91 79 c104 92 148 140 148 160 0 29 -23 14 -131 -87 -60 -57 -114
-104 -118 -106 -5 -2 -14 20 -21 47 -6 27 -24 70 -40 94 -15 24 -31 54 -35 66
-9 30 -35 27 -35 -4z"/>
<path d="M16275 4294 c-38 -7 -94 -13 -123 -13 -59 -1 -73 -16 -52 -55 15 -28
5 -82 -16 -90 -9 -4 -14 -17 -13 -38 1 -18 -6 -58 -16 -89 -10 -31 -15 -64
-12 -73 9 -23 37 -20 37 5 0 11 10 49 22 85 21 57 26 64 50 64 15 0 61 5 103
11 65 10 75 14 75 32 0 18 -4 19 -47 13 -27 -4 -70 -10 -96 -13 l-49 -6 7 49
c4 27 10 52 14 55 8 8 201 39 241 39 23 0 30 4 30 20 0 17 -6 20 -42 19 -24
-1 -74 -7 -113 -15z"/>
<path d="M14927 4284 c-4 -4 -7 -20 -7 -34 0 -15 -29 -87 -65 -160 -69 -140
-91 -220 -61 -220 17 0 20 5 30 52 4 19 11 25 21 22 8 -3 28 4 44 15 58 41 91
18 91 -65 0 -39 4 -54 14 -54 18 0 26 22 26 70 0 49 -17 88 -43 96 -17 5 -13
11 28 36 26 16 65 39 86 50 45 23 55 36 41 50 -11 11 -101 -33 -187 -91 -84
-57 -88 -50 -33 66 53 109 65 165 38 170 -9 2 -19 1 -23 -3z"/>
<path d="M3423 4264 c-8 -21 23 -52 38 -37 8 8 8 17 0 32 -14 25 -29 27 -38 5z"/>
<path d="M16645 4258 c-2 -7 -6 -24 -8 -38 -3 -14 -23 -76 -46 -139 -46 -128
-56 -193 -30 -199 12 -2 18 8 23 40 4 24 26 97 50 163 24 66 47 135 50 153 7
28 5 32 -14 32 -11 0 -22 -6 -25 -12z"/>
<path d="M12744 4245 c-8 -19 2 -45 16 -45 12 0 30 41 23 53 -7 13 -33 8 -39
-8z"/>
<path d="M9676 4199 c-38 -30 -70 -90 -114 -219 -22 -63 -52 -146 -67 -184
-25 -67 -27 -96 -5 -96 20 0 67 90 79 150 17 86 43 141 62 129 24 -15 70 -10
104 11 57 35 86 156 49 208 -20 29 -72 29 -108 1z m84 -64 c0 -94 -67 -154
-123 -112 -16 11 -15 16 7 64 30 64 59 93 91 93 23 0 25 -4 25 -45z"/>
<path d="M3552 4130 c-50 -36 -52 -56 -12 -95 33 -32 39 -60 14 -69 -29 -11
-54 -6 -71 14 -23 27 -63 27 -63 0 0 -40 104 -75 151 -50 32 17 39 29 39 67 0
24 -8 38 -31 56 l-31 24 27 22 c16 12 42 21 62 21 27 0 34 4 31 18 -6 31 -67
27 -116 -8z"/>
<path d="M3350 4104 c-6 -14 -10 -30 -10 -36 0 -6 -9 -26 -21 -45 -17 -27 -19
-36 -9 -48 23 -28 35 -15 58 58 26 85 26 83 7 91 -11 4 -19 -3 -25 -20z"/>
<path d="M9885 4119 c-26 -13 -74 -76 -82 -108 -7 -27 7 -56 28 -56 8 0 14 11
15 25 2 42 3 44 33 78 32 34 76 43 99 20 9 -9 15 -9 24 0 9 9 7 16 -7 32 -20
22 -75 26 -110 9z"/>
<path d="M5374 4112 c-7 -4 -28 -27 -48 -50 -72 -87 -37 -153 78 -151 76 1
111 11 111 29 0 12 -14 14 -72 11 l-72 -3 33 35 c42 45 52 81 31 113 -15 24
-40 30 -61 16z m19 -74 c-22 -38 -63 -68 -63 -46 0 20 60 89 71 82 6 -3 2 -18
-8 -36z"/>
<path d="M5640 4098 c0 -13 9 -38 20 -56 l20 -33 -55 -51 c-58 -52 -64 -65
-40 -74 8 -4 30 9 52 31 75 73 77 74 133 21 50 -47 74 -56 83 -33 3 8 -18 32
-49 57 l-53 45 34 28 c19 16 35 35 35 42 0 28 -21 26 -56 -4 -19 -17 -39 -31
-44 -31 -13 0 -40 42 -40 62 0 11 -8 18 -20 18 -14 0 -20 -7 -20 -22z"/>
<path d="M10024 4105 c-8 -19 3 -35 24 -35 11 0 7 -6 -13 -18 -38 -23 -50 -40
-59 -75 -19 -79 51 -89 127 -18 59 54 56 80 -15 131 -46 34 -56 36 -64 15z
m81 -94 c-8 -14 -85 -64 -90 -59 -22 22 58 95 82 76 7 -6 11 -14 8 -17z"/>
<path d="M7111 4081 c-37 -35 -70 -104 -71 -147 0 -21 9 -39 29 -58 39 -37 92
-43 159 -18 51 20 52 20 52 1 0 -44 40 -18 125 80 47 55 89 103 95 106 14 9
-14 -75 -38 -115 -25 -40 -29 -80 -8 -80 16 0 84 133 86 170 4 46 0 59 -20 65
-29 9 -53 -8 -121 -90 -34 -42 -64 -74 -66 -71 -7 6 37 114 52 126 19 16 19
50 1 50 -22 0 -53 -46 -77 -112 -18 -49 -29 -62 -60 -78 -57 -30 -114 -36
-144 -16 -36 24 -31 43 19 67 88 41 119 95 78 132 -27 25 -56 21 -91 -12z m64
-21 c9 -14 -5 -30 -44 -53 -38 -22 -40 -9 -5 32 27 33 39 38 49 21z"/>
<path d="M13283 4103 c-30 -6 -94 -78 -87 -98 4 -9 20 -23 36 -31 33 -17 33
-37 0 -42 -15 -2 -22 2 -22 13 0 26 -35 13 -38 -14 -4 -29 12 -41 56 -41 36 0
72 29 72 59 0 11 -13 31 -30 44 -16 14 -30 28 -30 31 0 10 69 46 89 46 16 0
21 5 19 18 -3 17 -26 23 -65 15z"/>
<path d="M14610 4087 c0 -30 10 -40 27 -26 20 18 16 49 -7 49 -14 0 -20 -7
-20 -23z"/>
<path d="M8530 4064 c-99 -89 -94 -184 10 -186 23 0 46 4 52 10 15 15 0 33
-25 31 -55 -4 -67 1 -67 24 0 50 80 131 110 112 24 -15 4 -39 -40 -50 -61 -15
-62 -41 -1 -37 56 3 79 16 87 49 10 40 -15 77 -53 81 -25 3 -41 -5 -73 -34z"/>
<path d="M10573 4073 c-3 -10 -24 -37 -45 -60 -42 -47 -49 -78 -18 -88 21 -7
47 5 98 43 51 39 56 56 26 91 -29 35 -52 40 -61 14z m21 -64 c-10 -11 -28 -25
-39 -31 -11 -6 -4 5 15 24 38 36 55 41 24 7z"/>
<path d="M12985 4082 c-6 -4 -32 -35 -58 -69 -26 -34 -61 -71 -77 -83 -41 -29
-56 -58 -35 -66 9 -4 25 2 36 12 12 11 32 17 50 16 34 -3 76 16 104 48 l20 22
5 -33 c3 -22 11 -35 23 -37 16 -3 18 4 15 70 -4 90 -20 99 -66 37 -17 -23 -41
-48 -53 -57 -26 -18 -24 -14 34 70 21 31 36 61 32 67 -7 13 -16 14 -30 3z"/>
<path d="M4273 4065 c-13 -9 -28 -33 -34 -55 -10 -33 -9 -43 5 -65 19 -29 60
-33 95 -9 18 13 28 14 47 5 14 -6 36 -11 50 -11 37 0 27 30 -15 44 -27 9 -35
17 -37 41 -6 55 -65 82 -111 50z m63 -40 c8 -19 -22 -65 -42 -65 -23 0 -28 27
-10 55 18 28 44 33 52 10z"/>
<path d="M6655 4073 c-56 -5 -81 -19 -65 -38 7 -8 29 -9 82 -3 96 11 104 14
88 33 -7 8 -22 14 -34 13 -11 -1 -43 -3 -71 -5z"/>
<path d="M12697 4057 c-3 -7 1 -24 9 -38 7 -13 13 -36 14 -50 0 -35 -54 -113
-112 -162 -41 -35 -50 -38 -64 -26 -9 7 -20 23 -25 36 -12 31 -39 30 -39 -1 0
-33 46 -86 75 -86 56 0 189 147 202 223 10 62 -42 151 -60 104z"/>
<path d="M15187 4038 c-34 -47 -49 -95 -36 -120 14 -27 69 -58 102 -58 15 0
42 6 60 14 41 16 118 102 110 122 -8 22 -20 17 -55 -27 -56 -70 -108 -85 -163
-49 -27 18 -28 20 -8 20 37 0 68 20 87 55 27 50 19 69 -31 73 -37 3 -44 -1
-66 -30z m61 -28 c-13 -21 -37 -34 -46 -25 -8 8 29 45 45 45 11 0 11 -4 1 -20z"/>
<path d="M7694 4041 c-83 -51 -99 -135 -34 -179 38 -26 95 -27 95 -2 0 8 -9
16 -20 18 -49 8 -75 25 -75 49 0 13 5 33 10 44 13 23 59 48 85 46 14 -1 20 4
20 18 0 27 -41 31 -81 6z"/>
<path d="M10764 4050 c-40 -16 -66 -140 -34 -160 30 -19 135 5 135 30 0 16
-27 18 -84 5 -30 -7 -33 -6 -28 11 3 10 8 31 11 46 5 20 15 30 39 36 42 11 50
42 10 41 -15 0 -37 -4 -49 -9z"/>
<path d="M11028 4044 c-7 -8 -30 -32 -50 -54 -43 -43 -47 -71 -18 -100 41 -41
122 -12 154 54 20 43 15 68 -21 96 -31 24 -48 25 -65 4z m59 -61 c6 -18 -51
-73 -76 -73 -36 0 -35 22 3 57 37 34 65 40 73 16z"/>
<path d="M8010 4042 c-35 -5 -53 -24 -80 -83 -27 -56 -21 -81 19 -87 53 -8
131 54 131 103 0 35 -39 72 -70 67z m30 -64 c0 -19 -52 -68 -72 -68 -17 0 -18
2 -3 30 9 17 20 28 24 25 5 -2 14 2 21 10 15 18 30 20 30 3z"/>
<path d="M14530 3925 c0 -29 3 -36 18 -33 11 2 17 13 17 33 0 20 -6 31 -17 33
-15 3 -18 -4 -18 -33z"/>
<path d="M4289 3788 c-1 -7 -1 -15 -1 -18 1 -12 -27 -259 -33 -297 -6 -36 -5
-44 11 -50 14 -5 32 9 81 62 l63 69 0 -40 c0 -44 23 -85 38 -69 11 11 -9 186
-20 185 -5 0 -12 0 -16 0 -5 0 -30 -32 -57 -70 -26 -39 -49 -69 -51 -67 -2 1
3 66 12 142 8 77 12 146 9 152 -6 17 -35 17 -36 1z"/>
<path d="M5000 3701 c-5 -11 -10 -32 -10 -47 0 -27 0 -27 -20 -9 -20 18 -21
18 -48 -3 -68 -55 -114 -83 -128 -80 -13 2 -11 10 10 41 32 46 33 59 4 55 -30
-4 -76 -93 -61 -116 19 -32 73 -26 128 13 l50 35 8 -29 c17 -68 68 -36 88 56
7 32 18 65 26 74 7 9 10 19 6 22 -13 14 -43 7 -53 -12z m-23 -103 c-3 -8 -6
-5 -6 6 -1 11 2 17 5 13 3 -3 4 -12 1 -19z"/>
<path d="M4577 3613 c-24 -26 -57 -90 -57 -112 0 -18 32 -41 57 -41 36 0 103
71 103 109 0 29 -21 55 -56 65 -14 4 -28 -2 -47 -21z m63 -40 c0 -20 -48 -73
-67 -73 -11 0 -10 7 2 37 9 21 21 41 28 45 20 13 37 9 37 -9z"/>
<path d="M3454 3585 c-9 -22 19 -50 41 -41 15 6 16 9 3 28 -19 29 -36 34 -44
13z"/>
<path d="M3635 3519 c-83 -44 -94 -72 -46 -119 l29 -29 -33 -11 c-17 -6 -39
-8 -47 -5 -23 9 -44 -21 -28 -40 17 -20 30 -19 95 10 66 29 78 50 44 77 -41
31 -49 39 -49 46 0 10 69 47 89 47 20 0 21 39 1 43 -8 1 -33 -7 -55 -19z"/>
<path d="M3407 3433 c-2 -5 -1 -42 2 -83 5 -66 8 -75 26 -75 17 0 20 6 18 40
-6 87 -14 125 -28 125 -8 0 -16 -3 -18 -7z"/>
<path d="M2315 3398 c-10 -61 -1 -301 12 -305 6 -2 30 14 52 36 l41 41 8 -32
c9 -37 36 -58 53 -41 8 8 7 17 -5 36 -9 14 -18 47 -20 73 -3 61 -27 72 -54 24
-48 -89 -50 -86 -48 63 1 123 -1 137 -16 137 -11 0 -19 -11 -23 -32z"/>
<path d="M2613 3389 c-6 -6 -8 -20 -6 -30 8 -28 38 -20 38 10 0 27 -15 37 -32
20z"/>
<path d="M2783 3370 c-53 -39 -54 -62 -8 -103 19 -17 35 -36 35 -43 0 -16 -27
-25 -54 -18 -16 4 -25 0 -30 -12 -7 -19 10 -44 31 -44 22 0 91 41 98 57 7 19
-10 49 -47 82 l-31 28 29 20 c16 11 38 22 49 24 29 6 25 33 -5 37 -16 2 -41
-9 -67 -28z"/>
<path d="M5675 3363 c-4 -10 -10 -93 -13 -185 -5 -177 -14 -212 -61 -238 -36
-19 -27 30 11 62 26 21 30 29 21 39 -10 10 -18 10 -39 -1 -33 -18 -54 -59 -54
-104 0 -30 4 -37 25 -42 33 -8 84 22 110 66 17 30 21 60 27 195 4 88 8 173 10
190 3 34 -24 48 -37 18z"/>
<path d="M2010 3271 c-240 -84 -230 -79 -230 -102 0 -20 20 -25 35 -10 6 5 51
23 101 39 l92 29 7 -114 c6 -98 9 -114 24 -111 14 3 16 20 16 122 l0 118 80
29 c43 16 87 27 96 24 10 -3 20 -1 24 5 9 14 -13 40 -34 39 -9 0 -104 -31
-211 -68z"/>
<path d="M2585 3240 c-10 -16 6 -81 22 -87 22 -9 26 3 19 52 -7 43 -26 60 -41
35z"/>
<path d="M5426 3183 c10 -45 10 -117 -1 -229 -7 -79 -7 -82 15 -94 18 -10 25
-9 38 4 14 14 14 16 -1 22 -20 7 -21 30 -5 140 14 97 -3 186 -36 192 -17 4
-18 0 -10 -35z"/>
<path d="M4132 3077 c-12 -13 -27 -37 -33 -55 -6 -18 -15 -32 -20 -32 -11 0
-12 -34 -2 -44 4 -4 8 -33 8 -64 2 -102 32 -137 55 -66 11 34 10 65 -5 126 -7
26 -6 27 27 22 30 -5 38 -2 61 26 33 39 34 60 4 88 -30 28 -68 28 -95 -1z m66
-25 c15 -10 6 -38 -15 -46 -24 -10 -45 12 -32 35 10 20 26 24 47 11z"/>
<path d="M3930 3076 c0 -22 29 -41 42 -28 8 8 8 15 -2 27 -16 19 -40 20 -40 1z"/>
<path d="M3733 2999 c-33 -16 -43 -27 -43 -45 0 -24 22 -52 56 -73 18 -11 18
-11 1 -25 -11 -8 -25 -12 -32 -10 -7 3 -16 0 -20 -6 -9 -14 13 -40 34 -40 20
0 81 56 81 74 0 7 -18 25 -40 40 -22 14 -40 30 -40 35 0 8 23 19 73 35 10 3
17 12 15 19 -7 20 -40 19 -85 -4z"/>
<path d="M5231 2996 c-6 -7 -14 -38 -18 -67 -7 -59 -27 -99 -49 -99 -23 0 -27
27 -10 61 20 39 20 49 3 49 -41 0 -68 -97 -38 -134 21 -26 64 -20 96 14 21 22
31 44 36 87 5 32 10 67 11 77 4 24 -15 31 -31 12z"/>
<path d="M2736 2963 c-3 -10 -13 -78 -21 -151 -12 -101 -14 -137 -5 -147 17
-21 38 -7 62 39 29 59 38 68 53 56 9 -7 11 -31 7 -79 -3 -47 -1 -71 8 -76 21
-13 29 8 32 88 3 73 1 79 -22 97 -34 26 -46 25 -76 -7 l-26 -28 7 60 c4 33 11
80 15 105 5 24 6 48 4 52 -9 14 -33 8 -38 -9z"/>
<path d="M3914 2926 c-10 -43 -1 -81 21 -81 17 0 20 6 18 45 -1 25 -2 48 -2
53 -2 18 -31 5 -37 -17z"/>
<path d="M4950 2880 c-6 -11 -10 -44 -8 -73 2 -41 7 -53 22 -55 25 -5 86 55
86 85 0 52 -77 85 -100 43z m60 -45 c0 -7 -7 -18 -15 -25 -13 -11 -15 -8 -15
18 0 24 4 30 15 26 8 -4 15 -12 15 -19z"/>
<path d="M2537 2864 c-4 -4 -7 -23 -7 -43 0 -49 -19 -114 -36 -124 -16 -9 -19
-37 -4 -37 6 0 10 -26 10 -58 0 -64 21 -97 57 -90 26 5 30 38 4 38 -19 0 -21
6 -21 64 l0 65 55 6 c44 6 55 11 53 24 -3 12 -14 16 -45 15 l-42 -1 2 70 c2
65 -7 89 -26 71z"/>
<path d="M4784 2814 c-10 -24 -13 -50 -8 -80 7 -51 -8 -60 -24 -14 -14 37 -31
32 -68 -21 -15 -22 -28 -38 -30 -36 -2 2 5 29 16 60 25 71 25 84 0 97 -31 17
-56 4 -85 -45 -14 -25 -32 -45 -39 -45 -19 0 -29 -30 -13 -36 7 -2 27 -6 43
-7 23 -2 29 2 30 18 0 23 33 89 40 82 3 -2 -4 -29 -16 -58 -24 -64 -25 -92 -6
-108 18 -15 40 -5 75 33 24 25 24 25 38 6 37 -52 83 -5 80 81 -1 41 2 60 16
73 20 21 14 36 -14 36 -14 0 -25 -12 -35 -36z"/>
<path d="M3013 2803 c-10 -21 -24 -46 -32 -56 -13 -15 -13 -22 2 -52 20 -43
57 -59 115 -50 33 5 42 10 40 23 -3 13 -13 16 -46 14 -41 -3 -72 10 -72 29 0
5 5 9 11 9 20 0 79 53 79 71 0 17 -45 49 -70 49 -6 0 -18 -17 -27 -37z"/>
<path d="M4109 2643 c-29 -34 -59 -90 -59 -111 0 -32 49 -65 85 -58 16 3 48
10 70 14 50 9 63 42 17 42 -16 0 -43 -5 -61 -11 -17 -6 -39 -8 -48 -4 -14 5
-10 10 21 28 51 29 63 48 50 84 -12 34 -52 43 -75 16z m30 -54 c-19 -12 -24
-2 -8 17 9 11 14 13 17 4 3 -7 -2 -16 -9 -21z"/>
<path d="M5073 2547 c-32 -24 -76 -64 -96 -88 l-38 -44 3 70 c3 64 1 70 -17
70 -18 0 -20 -7 -22 -70 -1 -38 -7 -113 -14 -166 -8 -72 -8 -102 0 -118 14
-25 34 -27 52 -5 11 14 11 18 -5 29 -14 11 -16 21 -10 62 11 73 33 84 120 58
36 -11 54 -23 66 -45 18 -32 48 -41 48 -13 0 9 -12 31 -26 50 -19 25 -39 37
-85 50 -32 9 -59 19 -59 23 0 9 93 96 139 131 21 15 32 30 27 37 -11 18 -19
15 -83 -31z"/>
<path d="M5295 2504 c-26 -35 -35 -57 -35 -86 0 -42 33 -118 52 -118 42 0 94
28 134 74 72 83 51 109 -26 31 -41 -42 -92 -70 -104 -58 -10 10 -7 43 4 43 15
0 70 80 70 101 0 18 -36 59 -51 59 -5 0 -24 -21 -44 -46z m33 -49 c-12 -21
-24 -33 -26 -27 -4 12 37 76 44 69 3 -3 -5 -22 -18 -42z"/>
<path d="M3752 2520 c-24 -23 -29 -69 -10 -88 16 -16 43 -15 78 3 28 15 29 14
74 -36 25 -28 46 -57 46 -64 0 -7 -19 -15 -47 -19 -25 -3 -55 -14 -65 -23 -62
-56 46 -174 130 -142 36 14 42 26 42 81 0 76 -26 136 -91 207 -33 35 -59 68
-59 72 0 5 -7 9 -15 9 -8 0 -15 5 -15 10 0 18 -45 11 -68 -10z m52 -35 c3 -9
-1 -18 -10 -22 -19 -7 -28 2 -21 22 8 19 23 19 31 0z m156 -249 c0 -54 -18
-64 -69 -38 -25 13 -37 27 -39 45 -3 27 8 33 76 36 31 1 32 0 32 -43z"/>
<path d="M3477 2485 c-24 -23 -37 -45 -37 -62 0 -23 3 -25 39 -21 34 3 41 0
50 -19 12 -25 56 -47 78 -39 20 8 16 36 -6 36 -25 0 -37 17 -46 65 -8 44 -22
75 -34 75 -4 0 -24 -16 -44 -35z m38 -35 c-3 -5 -11 -10 -16 -10 -6 0 -7 5 -4
10 3 6 11 10 16 10 6 0 7 -4 4 -10z"/>
<path d="M3217 2455 c-35 -33 -35 -67 1 -94 23 -17 25 -22 12 -31 -11 -7 -16
-5 -18 5 -2 8 -12 15 -23 15 -15 0 -19 -7 -19 -34 0 -44 28 -56 68 -30 56 36
58 65 8 105 -18 14 -18 19 -7 33 10 12 17 14 25 6 16 -16 36 -12 36 8 0 45
-42 54 -83 17z"/>
<path d="M2966 2397 c-27 -35 -34 -75 -15 -94 8 -8 8 -13 0 -17 -16 -10 -14
-53 3 -59 32 -13 96 21 96 50 0 7 -16 23 -35 34 -19 12 -35 27 -35 33 0 20 34
46 59 46 37 0 22 34 -16 38 -25 3 -36 -3 -57 -31z m29 -125 c-3 -3 -11 0 -18
7 -9 10 -8 11 6 5 10 -3 15 -9 12 -12z"/>
<path d="M4450 2330 c-15 -105 -9 -210 14 -246 14 -21 24 -25 54 -22 26 2 38
8 40 21 3 13 -3 17 -28 17 -24 0 -33 6 -41 28 -14 35 -5 207 12 245 11 24 11
30 -2 38 -30 19 -36 7 -49 -81z"/>
<path d="M4711 2361 c-21 -14 -5 -43 21 -39 15 2 23 10 23 23 0 22 -22 30 -44
16z"/>
<path d="M2702 2334 c-44 -30 -65 -101 -42 -143 11 -22 64 -45 85 -37 26 10
16 33 -17 40 l-32 6 36 26 c20 14 42 40 49 56 11 28 11 33 -10 49 -28 23 -40
24 -69 3z m48 -32 c0 -5 -11 -19 -25 -32 -26 -24 -33 -14 -15 21 11 19 40 27
40 11z"/>
<path d="M2337 2292 c-10 -10 -17 -23 -17 -29 0 -6 -11 -26 -24 -46 -15 -22
-25 -53 -28 -84 -3 -45 -2 -48 22 -48 22 0 25 5 26 35 1 19 10 57 21 84 l20
49 16 -24 c10 -13 17 -31 17 -41 0 -37 37 -20 60 27 18 37 25 43 36 34 8 -7
14 -30 14 -58 0 -50 13 -71 42 -71 19 0 25 25 8 35 -5 3 -10 26 -10 49 0 86
-76 130 -108 63 l-14 -29 -26 36 c-29 41 -33 43 -55 18z"/>
<path d="M5976 2213 c-43 -55 -55 -91 -35 -104 7 -4 31 -11 52 -14 47 -8 44
-26 -8 -41 -46 -13 -56 -31 -21 -40 40 -10 100 24 104 59 4 36 -12 55 -50 59
-18 2 -33 8 -35 14 -2 5 13 29 33 52 34 40 38 62 10 62 -7 0 -30 -21 -50 -47z"/>
<path d="M4675 2220 c-12 -39 30 -65 55 -35 11 13 9 19 -8 35 -27 25 -39 25
-47 0z"/>
<path d="M5459 2198 c-5 -21 -4 -129 1 -138 14 -23 29 0 35 55 5 38 4 60 -5
70 -11 13 -29 20 -31 13z"/>
<path d="M5355 2098 c8 -82 10 -88 32 -88 13 0 14 11 9 68 -3 37 -6 73 -6 80
0 6 -9 12 -21 12 -19 0 -20 -4 -14 -72z"/>
<path d="M3516 2141 c-4 -5 -4 -16 0 -24 3 -8 -4 -51 -15 -95 -12 -44 -21 -91
-21 -104 0 -35 32 -118 46 -118 19 0 25 16 15 42 -6 18 -3 28 15 48 13 13 24
19 24 13 0 -18 69 -36 115 -30 59 9 95 27 95 49 0 22 -7 22 -53 3 -47 -20
-101 -19 -122 1 -14 15 -11 21 40 76 37 40 55 67 53 81 -5 31 -25 31 -42 0 -8
-16 -38 -51 -68 -78 -29 -28 -58 -61 -65 -75 -17 -38 -15 -4 6 83 10 43 26 86
35 95 12 14 13 21 4 30 -14 14 -54 16 -62 3z"/>
<path d="M5798 2103 c-48 -7 -109 -123 -88 -164 6 -10 13 -19 16 -19 12 0 62
30 74 45 12 14 14 13 27 -5 10 -14 24 -20 41 -18 31 4 41 27 14 35 -22 5 -34
46 -25 82 5 20 -12 53 -26 50 -3 -1 -18 -4 -33 -6z m3 -70 c-18 -31 -41 -57
-45 -52 -9 9 27 69 41 69 10 0 11 -4 4 -17z"/>
<path d="M3241 1898 c2 -13 -4 -36 -13 -53 -24 -46 -32 -94 -18 -110 20 -24
68 -18 97 11 21 21 25 32 20 65 -3 22 -17 55 -32 74 -30 40 -58 47 -54 13z
m47 -98 c-3 -24 -32 -49 -43 -38 -3 3 1 23 10 44 11 26 19 34 26 27 6 -6 9
-21 7 -33z"/>
<path d="M5083 1898 c-6 -7 -22 -36 -37 -65 -28 -57 -32 -104 -15 -164 10 -33
16 -39 49 -44 24 -4 46 -2 60 7 29 18 92 114 88 135 -6 33 -26 23 -56 -29 -16
-30 -37 -60 -45 -67 -24 -19 -50 -9 -62 23 -8 25 -6 30 20 49 62 45 76 68 73
116 -3 43 -5 46 -34 49 -17 2 -35 -3 -41 -10z m21 -89 c-29 -33 -35 -21 -12
24 20 37 23 39 26 19 2 -13 -4 -32 -14 -43z"/>
<path d="M4882 1853 c-25 -10 -61 -82 -71 -140 -13 -84 -10 -108 14 -108 17 0
21 9 27 72 7 69 26 125 48 138 5 3 21 -2 35 -11 20 -13 29 -14 38 -5 9 10 6
18 -16 37 -27 23 -48 28 -75 17z"/>
<path d="M2749 1824 c-11 -14 -11 -17 4 -25 22 -13 22 -46 -4 -175 -15 -70
-19 -108 -12 -115 7 -7 28 -3 64 12 30 11 70 27 89 34 19 7 36 20 38 29 5 24
-40 20 -98 -9 -27 -14 -51 -25 -53 -25 -2 0 5 39 15 88 21 103 22 138 5 171
-15 31 -30 36 -48 15z"/>
<path d="M4670 1826 c0 -7 7 -19 15 -26 19 -16 41 1 32 24 -8 20 -47 21 -47 2z"/>
<path d="M3026 1797 c-28 -29 -42 -97 -26 -127 9 -17 19 -21 53 -18 34 2 45 9
64 37 28 42 29 65 2 102 -25 36 -61 38 -93 6z m66 -42 c9 -21 8 -28 -7 -45
-10 -11 -27 -20 -38 -20 -17 0 -19 5 -13 32 12 59 39 74 58 33z"/>
<path d="M5873 1727 c-10 -12 -38 -48 -61 -79 -24 -32 -46 -58 -49 -58 -4 0
-15 7 -25 17 -17 15 -20 15 -41 -5 -13 -12 -28 -22 -35 -22 -18 0 -25 -20 -12
-35 8 -10 7 -27 -5 -70 -12 -40 -14 -60 -6 -68 23 -23 42 14 66 128 l7 30 19
-25 20 -25 47 52 48 52 -4 -32 c-2 -18 1 -44 7 -59 9 -24 16 -28 49 -28 39 0
62 14 62 37 0 10 -10 12 -40 7 -35 -6 -40 -4 -40 13 0 33 22 137 31 148 13 14
11 32 -5 38 -8 3 -22 -4 -33 -16z"/>
<path d="M4536 1731 c-4 -6 -6 -45 -4 -88 2 -63 -1 -83 -16 -106 l-19 -28 -21
38 c-12 21 -28 38 -36 38 -8 0 -19 9 -25 19 -5 10 -18 24 -28 30 -15 9 -24 4
-57 -34 -22 -25 -39 -51 -37 -59 4 -29 27 -21 58 21 l31 43 -5 -45 c-3 -25 -9
-65 -13 -89 -6 -39 -5 -43 12 -39 10 2 29 23 43 46 l23 43 19 -30 c24 -40 42
-39 73 2 39 51 46 79 38 163 -6 72 -21 101 -36 75z"/>
<path d="M3579 1688 c-1 -4 -5 -62 -13 -193 -4 -67 -4 -115 2 -124 14 -20 42
-6 55 29 14 38 24 38 32 -1 7 -32 43 -56 69 -46 22 9 20 26 -5 35 -14 5 -27
26 -38 58 -19 57 -39 66 -64 27 l-18 -28 5 63 c3 34 9 89 12 122 6 57 6 60
-15 60 -11 0 -21 -1 -22 -2z"/>
<path d="M4661 1659 c-20 -58 -8 -119 24 -119 20 0 28 19 15 35 -8 10 -10 31
-5 65 6 41 4 50 -8 50 -8 0 -20 -14 -26 -31z"/>
<path d="M3399 1623 c-1 -5 0 -51 1 -105 l2 -96 -47 -21 c-28 -12 -45 -26 -42
-33 4 -14 31 -15 59 -3 15 6 17 -2 20 -62 2 -55 6 -68 21 -71 15 -3 17 6 17
75 l0 79 55 18 c32 10 55 23 55 31 0 23 -16 26 -60 10 l-42 -15 4 95 c2 72 0
96 -10 100 -19 7 -32 6 -33 -2z"/>
<path d="M3811 1607 c-37 -45 -55 -169 -29 -195 7 -7 24 -12 39 -12 33 0 148
58 163 82 20 33 -5 31 -73 -5 -38 -20 -76 -37 -85 -37 -27 0 -18 34 14 52 16
9 39 32 50 50 l20 33 -25 23 c-29 25 -57 28 -74 9z m33 -58 c-21 -24 -29 -18
-14 10 6 12 16 19 21 15 6 -4 4 -13 -7 -25z"/>
<path d="M5520 1485 c0 -26 -9 -43 -37 -71 -20 -21 -38 -33 -40 -27 -6 18 16
63 32 63 16 0 21 35 7 44 -23 14 -52 -8 -66 -52 -20 -57 -20 -67 0 -86 22 -23
39 -20 77 14 30 26 36 28 47 15 8 -10 17 -12 24 -6 9 7 9 28 2 75 -8 53 -14
66 -28 66 -14 0 -18 -8 -18 -35z"/>
<path d="M5277 1470 c-33 -26 -49 -79 -45 -149 2 -38 8 -57 20 -65 25 -15 47
7 28 29 -18 21 -8 119 14 144 10 11 30 21 45 23 37 4 34 32 -5 36 -19 2 -40
-5 -57 -18z"/>
<path d="M4594 1386 c-3 -8 4 -24 15 -35 17 -17 21 -34 21 -81 l0 -59 -37 -10
c-21 -6 -44 -11 -51 -11 -8 0 -12 -8 -10 -17 4 -19 35 -23 74 -10 20 7 21 4
20 -50 -1 -47 2 -58 17 -61 13 -3 17 3 17 26 0 16 3 50 6 75 6 43 10 48 50 68
41 19 53 37 38 52 -4 3 -22 0 -41 -8 -46 -19 -43 -20 -43 19 0 46 -18 94 -40
106 -25 13 -30 13 -36 -4z"/>
<path d="M5028 1323 c-14 -16 -33 -48 -42 -72 -35 -89 17 -130 96 -76 l38 25
4 -22 c3 -13 8 -50 11 -82 4 -33 9 -65 12 -72 3 -8 -15 -23 -47 -39 -57 -29
-74 -58 -61 -103 13 -43 28 -69 68 -113 71 -78 99 -41 89 119 -6 85 -4 102 8
102 15 0 28 24 19 34 -4 3 -15 6 -25 6 -12 0 -18 8 -18 23 -1 12 -7 73 -14
134 -11 94 -18 117 -37 138 -32 33 -69 32 -101 -2z m80 -37 c10 -22 7 -28 -29
-60 -38 -35 -69 -46 -69 -26 0 12 20 59 38 88 19 29 46 28 60 -2z m46 -363 c3
-21 6 -62 6 -92 l0 -54 -26 24 c-27 25 -46 57 -58 96 -6 18 -1 26 26 43 18 11
36 20 39 20 4 0 9 -17 13 -37z"/>
<path d="M2271 1282 c-16 -30 -16 -152 -1 -162 24 -15 30 -1 30 69 0 37 5 72
11 78 6 6 8 16 5 22 -11 17 -34 13 -45 -7z"/>
<path d="M4130 1275 c0 -9 8 -27 17 -42 26 -39 23 -183 -4 -243 -46 -102 -115
-123 -83 -25 10 29 16 35 40 35 26 0 46 21 33 34 -4 3 -21 6 -39 6 -83 0 -115
-168 -33 -178 105 -12 186 245 123 396 -14 34 -54 46 -54 17z"/>
<path d="M2156 1189 c-5 -55 -4 -84 4 -94 22 -27 35 -6 36 61 0 35 6 70 12 76
21 21 13 38 -17 38 -28 0 -28 0 -35 -81z"/>
<path d="M4797 1238 c-18 -14 -40 -108 -31 -133 9 -21 48 -19 69 5 l18 20 22
-20 c24 -23 40 -25 51 -9 4 7 -3 20 -17 29 -17 14 -23 27 -22 54 1 28 -3 36
-17 36 -10 0 -23 7 -30 15 -15 18 -21 19 -43 3z m37 -47 c3 -4 -1 -17 -9 -27
-14 -18 -14 -18 -15 9 0 26 13 36 24 18z"/>
<path d="M2767 1200 c-14 -11 -29 -30 -33 -42 -6 -19 -7 -19 -16 -5 -13 25
-38 21 -37 -5 1 -37 25 -93 39 -93 7 0 18 14 23 30 6 17 16 39 23 50 13 18 14
14 14 -31 0 -57 18 -91 44 -81 13 5 15 11 6 26 -5 11 -10 49 -10 84 0 79 -14
97 -53 67z"/>
<path d="M3605 1146 c-16 -7 -41 -26 -54 -41 -23 -28 -23 -28 -12 -149 6 -67
13 -134 14 -151 1 -22 7 -30 21 -30 18 0 19 7 17 70 -1 39 -4 78 -7 88 -4 13
0 17 18 17 58 0 138 77 138 132 0 38 -40 78 -77 78 -15 -1 -41 -7 -58 -14z
m83 -38 c20 -20 14 -45 -22 -83 -61 -65 -115 -33 -84 48 16 41 79 62 106 35z"/>
<path d="M2568 1139 c-31 -12 -46 -48 -50 -123 -4 -63 15 -78 66 -53 63 29 85
116 35 132 -16 5 -18 9 -9 15 13 8 7 41 -7 39 -4 0 -20 -5 -35 -10z m40 -85
c8 -5 -20 -44 -38 -54 -18 -10 -19 -8 -14 22 10 59 12 62 32 47 9 -7 18 -14
20 -15z"/>
<path d="M4382 1108 c-7 -7 -12 -22 -12 -34 0 -22 -41 -74 -60 -74 -12 0 -12
7 -1 35 4 11 16 20 27 20 26 0 30 32 5 40 -41 13 -81 -36 -81 -100 0 -47 51
-54 97 -13 21 20 21 20 25 -4 2 -12 10 -23 18 -23 12 0 15 15 15 79 0 79 -9
98 -33 74z"/>
<path d="M3148 1025 c-16 -9 -28 -24 -28 -35 0 -24 13 -25 44 -5 22 15 23 14
39 -38 9 -28 19 -83 23 -122 l7 -70 -22 19 c-31 28 -51 7 -27 -28 14 -22 24
-26 65 -26 65 0 123 42 157 113 60 130 12 195 -150 204 -61 3 -88 0 -108 -12z
m211 -50 c33 -16 37 -33 24 -95 -7 -36 -85 -126 -101 -116 -5 3 -13 36 -17 73
-4 38 -13 86 -21 108 -7 22 -14 44 -14 49 0 13 94 0 129 -19z"/>
<path d="M2886 873 c-10 -148 -32 -232 -78 -295 -10 -14 -10 -20 -1 -29 19
-19 50 15 74 83 20 54 23 57 39 43 23 -21 75 -2 95 34 11 20 14 22 15 8 0 -10
7 -31 15 -47 13 -24 22 -30 49 -30 35 0 63 21 51 39 -3 6 -18 8 -34 5 -35 -7
-41 5 -48 108 -6 76 -20 107 -43 93 -5 -3 -10 -27 -10 -52 0 -51 -24 -109 -51
-123 -26 -15 -33 16 -31 143 2 99 0 107 -17 107 -17 0 -20 -10 -25 -87z"/>
<path d="M2300 598 c-11 -18 -25 -56 -31 -84 -14 -61 -1 -94 35 -94 23 0 76
44 76 63 0 5 6 5 14 -2 23 -19 37 9 21 39 -8 14 -14 33 -15 44 0 22 -44 66
-66 66 -8 0 -23 -15 -34 -32z m60 -46 c0 -31 -34 -92 -51 -92 -8 0 -9 12 -4
37 15 79 55 119 55 55z"/>
</g>
</svg>
